<svg width="80" height="22" viewBox="0 0 80 22" fill="none" xmlns="http://www.w3.org/2000/svg">
<g clip-path="url(#clip0_22986_142549)">
<path d="M10.4818 11.2218L8.10184 8.84183C7.11604 7.85603 5.51775 7.85603 4.53195 8.84183L2.54868 10.8251C1.56288 11.8109 1.56288 13.4092 2.54868 14.395L4.92861 16.7749C5.9144 17.7607 7.5127 17.7607 8.4985 16.7749L10.4818 14.7916C11.4676 13.8059 11.4676 12.2076 10.4818 11.2218Z" fill="white" stroke="#AAAAAA" stroke-width="0.560953"/>
<path d="M13.1733 11.0234L10.7933 8.64343C9.698 7.5481 7.92212 7.5481 6.82678 8.64343L4.84351 10.6267C3.74818 11.722 3.74818 13.4979 4.84351 14.5932L7.22344 16.9732C8.31877 18.0685 10.0947 18.0685 11.19 16.9732L13.1733 14.9899C14.2686 13.8946 14.2686 12.1187 13.1733 11.0234Z" fill="#AAAAAA"/>
<path d="M15.4676 11.2218L13.0877 8.84183C12.1019 7.85603 10.5036 7.85603 9.51779 8.84183L7.53452 10.8251C6.54872 11.8109 6.54872 13.4092 7.53452 14.395L9.91444 16.7749C10.9002 17.7607 12.4985 17.7607 13.4843 16.7749L15.4676 14.7916C16.4534 13.8059 16.4534 12.2076 15.4676 11.2218Z" fill="white" stroke="#AAAAAA" stroke-width="0.560953"/>
<path d="M19.8164 21.1117V8.27987H23.1459V9.90814H23.2188C23.3403 9.5922 23.5185 9.30261 23.7534 9.0393C23.9884 8.772 24.28 8.55934 24.6284 8.40137C24.9767 8.23933 25.3818 8.15833 25.8435 8.15833C26.4591 8.15833 27.0444 8.32239 27.5993 8.65046C28.1583 8.97857 28.612 9.495 28.9603 10.1998C29.3127 10.9045 29.4889 11.82 29.4889 12.946C29.4889 14.0234 29.3208 14.9165 28.9846 15.6254C28.6525 16.3342 28.2069 16.8628 27.6479 17.2111C27.093 17.5594 26.4835 17.7336 25.8192 17.7336C25.3817 17.7336 24.9908 17.6627 24.6466 17.521C24.3063 17.3751 24.0147 17.1787 23.7717 16.9316C23.5327 16.6805 23.3484 16.397 23.2188 16.081H23.1702V21.1117H19.8164ZM23.0973 12.946C23.0973 13.3996 23.156 13.7925 23.2735 14.1246C23.395 14.4528 23.5651 14.7079 23.7838 14.8902C24.0066 15.0684 24.2719 15.1575 24.5798 15.1575C24.8876 15.1575 25.1488 15.0705 25.3635 14.8963C25.5822 14.718 25.7483 14.4649 25.8617 14.1368C25.9792 13.8047 26.0379 13.4077 26.0379 12.946C26.0379 12.4842 25.9792 12.0893 25.8617 11.7612C25.7483 11.4291 25.5822 11.1759 25.3635 11.0018C25.1488 10.8235 24.8876 10.7344 24.5798 10.7344C24.2719 10.7344 24.0066 10.8235 23.7838 11.0018C23.5651 11.1759 23.395 11.4291 23.2735 11.7612C23.156 12.0893 23.0973 12.4842 23.0973 12.946ZM36.2609 13.5292V8.27987H39.6147V17.6121H36.431V15.838H36.3338C36.1313 16.4334 35.7769 16.8992 35.2706 17.2354C34.7643 17.5675 34.1628 17.7336 33.4661 17.7336C32.814 17.7336 32.2429 17.5837 31.7528 17.284C31.2667 16.9843 30.888 16.5711 30.6166 16.0446C30.3493 15.518 30.2136 14.9145 30.2095 14.234V8.27987H33.5633V13.5292C33.5673 13.991 33.6848 14.3535 33.9157 14.6168C34.1506 14.8801 34.4787 15.0117 34.8999 15.0117C35.1795 15.0117 35.4204 14.953 35.623 14.8355C35.8295 14.714 35.9875 14.5439 36.0968 14.3252C36.2103 14.1024 36.265 13.8371 36.2609 13.5292ZM40.5875 17.6121V5.16909H43.941V9.90814H43.9899C44.1112 9.5922 44.2895 9.30261 44.5243 9.0393C44.7596 8.772 45.051 8.55934 45.3995 8.40137C45.7479 8.23933 46.1529 8.15833 46.6145 8.15833C47.2303 8.15833 47.8153 8.32239 48.3703 8.65046C48.9292 8.97857 49.383 9.495 49.7315 10.1998C50.0838 10.9045 50.2599 11.82 50.2599 12.946C50.2599 14.0234 50.0919 14.9165 49.7555 15.6254C49.4233 16.3342 48.978 16.8628 48.4192 17.2111C47.8642 17.5594 47.2543 17.7336 46.59 17.7336C46.1529 17.7336 45.762 17.6627 45.4175 17.521C45.0772 17.3751 44.7857 17.1787 44.5427 16.9316C44.3036 16.6805 44.1193 16.397 43.9899 16.081H43.917V17.6121H40.5875ZM43.8682 12.946C43.8682 13.3996 43.9269 13.7925 44.0443 14.1246C44.166 14.4528 44.3362 14.7079 44.5547 14.8902C44.7776 15.0684 45.0429 15.1575 45.3506 15.1575C45.6587 15.1575 45.9198 15.0705 46.1345 14.8963C46.3535 14.718 46.5193 14.4649 46.6329 14.1368C46.7503 13.8047 46.809 13.4077 46.809 12.946C46.809 12.4842 46.7503 12.0893 46.6329 11.7612C46.5193 11.4291 46.3535 11.1759 46.1345 11.0018C45.9198 10.8235 45.6587 10.7344 45.3506 10.7344C45.0429 10.7344 44.7776 10.8235 44.5547 11.0018C44.3362 11.1759 44.166 11.4291 44.0443 11.7612C43.9269 12.0893 43.8682 12.4842 43.8682 12.946ZM54.333 5.16909V17.6121H50.979V5.16909H54.333ZM55.3573 17.6121V8.27987H58.7109V17.6121H55.3573ZM57.0343 7.30774C56.5805 7.30774 56.1918 7.15787 55.8678 6.85813C55.5438 6.55843 55.3818 6.19792 55.3818 5.77667C55.3818 5.35543 55.5438 4.99496 55.8678 4.6952C56.1918 4.39547 56.5805 4.24561 57.0343 4.24561C57.492 4.24561 57.8808 4.39547 58.2005 4.6952C58.5249 4.99496 58.6869 5.35543 58.6869 5.77667C58.6869 6.19792 58.5249 6.55843 58.2005 6.85813C57.8808 7.15787 57.492 7.30774 57.0343 7.30774ZM69.1406 8.27987L66.0056 17.6121H62.1172L58.9822 8.27987H62.5059L64.0127 14.4528H64.11L65.6169 8.27987H69.1406ZM73.5978 17.7822C72.6013 17.7822 71.7429 17.5918 71.0216 17.2111C70.3046 16.8263 69.7518 16.2755 69.363 15.5585C68.9782 14.8375 68.7858 13.9748 68.7858 12.9703C68.7858 12.0063 68.9803 11.1638 69.369 10.4428C69.7578 9.7218 70.3067 9.16084 71.0156 8.75983C71.7245 8.35886 72.561 8.15833 73.5249 8.15833C74.2295 8.15833 74.8676 8.2677 75.4389 8.48644C76.0098 8.70514 76.4979 9.0231 76.9029 9.44032C77.3079 9.85346 77.6199 10.3557 77.8385 10.9471C78.0575 11.5384 78.1668 12.2047 78.1668 12.946V13.7237H69.831V11.8767H75.0802C75.0763 11.6093 75.0073 11.3744 74.8736 11.1719C74.7442 10.9653 74.568 10.8053 74.3452 10.6919C74.1262 10.5744 73.8772 10.5157 73.5978 10.5157C73.3265 10.5157 73.0775 10.5744 72.8503 10.6919C72.6236 10.8053 72.4415 10.9633 72.3035 11.1658C72.1702 11.3683 72.099 11.6053 72.0909 11.8767V13.8695C72.0909 14.1692 72.1539 14.4366 72.2795 14.6715C72.405 14.9064 72.585 15.0907 72.8199 15.2244C73.0552 15.358 73.3385 15.4248 73.6706 15.4248C73.9016 15.4248 74.112 15.3924 74.3028 15.3276C74.4969 15.2628 74.6632 15.1697 74.8008 15.0482C74.9383 14.9226 75.0399 14.7727 75.1046 14.5986H78.1668C78.0613 15.2466 77.8123 15.8097 77.4193 16.2876C77.0263 16.7615 76.506 17.1301 75.858 17.3934C75.2139 17.6526 74.4605 17.7822 73.5978 17.7822Z" fill="#AAAAAA"/>
</g>
<defs>
<clipPath id="clip0_22986_142549">
<rect width="78.8571" height="21" fill="white" transform="translate(0.367188 0.683594)"/>
</clipPath>
</defs>
</svg>
