<svg width="122" height="28" viewBox="0 0 122 28" fill="none" xmlns="http://www.w3.org/2000/svg">
<g clip-path="url(#clip0_22997_479)">
<path d="M35.7553 17.7954C34.6067 17.7954 33.6636 17.5245 32.926 16.983C32.1882 16.432 31.7914 15.6477 31.7354 14.6298H34.6627C34.6907 14.9754 34.7935 15.2274 34.971 15.3862C35.1484 15.5449 35.3771 15.6243 35.6572 15.6243C35.9093 15.6243 36.1148 15.5637 36.2736 15.4423C36.4416 15.3115 36.5257 15.134 36.5257 14.91C36.5257 14.6205 36.3902 14.3964 36.1195 14.2377C35.8487 14.0789 35.4098 13.9015 34.8028 13.7054C34.1585 13.4907 33.6356 13.2852 33.2341 13.089C32.8419 12.8837 32.4964 12.5895 32.1976 12.2067C31.9081 11.8145 31.7634 11.3056 31.7634 10.6799C31.7634 10.0449 31.9221 9.50334 32.2396 9.05513C32.5571 8.59757 32.996 8.25207 33.5562 8.01862C34.1165 7.78518 34.7515 7.66846 35.4611 7.66846C36.6097 7.66846 37.5248 7.93926 38.2065 8.48084C38.8975 9.01311 39.2663 9.76481 39.313 10.7359H36.3296C36.3202 10.4371 36.2268 10.213 36.0495 10.0636C35.8813 9.91422 35.662 9.83951 35.3911 9.83951C35.1857 9.83951 35.0176 9.90021 34.8868 10.0216C34.7561 10.143 34.6907 10.3157 34.6907 10.5399C34.6907 10.7266 34.7608 10.89 34.9008 11.0301C35.0503 11.1608 35.2323 11.2775 35.4471 11.3803C35.662 11.4736 35.9793 11.595 36.3996 11.7444C37.0252 11.9592 37.5389 12.174 37.9404 12.3888C38.3512 12.5942 38.7013 12.8883 38.9908 13.2712C39.2897 13.6447 39.4391 14.1209 39.4391 14.6999C39.4391 15.2882 39.2897 15.8158 38.9908 16.2827C38.7013 16.7495 38.2765 17.1184 37.7162 17.3892C37.1654 17.66 36.5117 17.7954 35.7553 17.7954Z" fill="#AAAAAA"/>
<path d="M42.1015 9.11111C41.616 9.11111 41.2237 8.98039 40.925 8.71893C40.6355 8.44813 40.4907 8.11196 40.4907 7.71043C40.4907 7.29956 40.6355 6.95874 40.925 6.68794C41.2237 6.41714 41.616 6.28174 42.1015 6.28174C42.5777 6.28174 42.9606 6.41714 43.2501 6.68794C43.5488 6.95874 43.6983 7.29956 43.6983 7.71043C43.6983 8.11196 43.5488 8.44813 43.2501 8.71893C42.9606 8.98039 42.5777 9.11111 42.1015 9.11111ZM43.4602 9.83946V17.6972H40.7148V9.83946H43.4602Z" fill="#AAAAAA"/>
<path d="M55.2919 9.76929C56.2817 9.76929 57.0568 10.0681 57.617 10.6657C58.1866 11.2633 58.4714 12.0804 58.4714 13.117V17.6971H55.7262V13.4811C55.7262 13.0608 55.6094 12.7341 55.3759 12.5006C55.1425 12.2672 54.825 12.1504 54.4235 12.1504C54.0219 12.1504 53.7044 12.2672 53.471 12.5006C53.2375 12.7341 53.1208 13.0608 53.1208 13.4811V17.6971H50.3755V13.4811C50.3755 13.0608 50.2588 12.7341 50.0253 12.5006C49.8013 12.2672 49.4884 12.1504 49.0869 12.1504C48.676 12.1504 48.3539 12.2672 48.1204 12.5006C47.8869 12.7341 47.7703 13.0608 47.7703 13.4811V17.6971H45.0249V9.83931H47.7703V10.8758C48.013 10.5397 48.3258 10.2735 48.7087 10.0774C49.1009 9.872 49.5492 9.76929 50.0534 9.76929C50.6323 9.76929 51.1459 9.89535 51.5942 10.1475C52.0517 10.3996 52.4112 10.7544 52.6727 11.212C52.9528 10.7824 53.3216 10.4369 53.7791 10.1755C54.2366 9.90469 54.7409 9.76929 55.2919 9.76929Z" fill="#AAAAAA"/>
<path d="M62.721 10.932C62.9357 10.5679 63.2392 10.2784 63.6313 10.0636C64.0236 9.84883 64.4858 9.74146 65.0181 9.74146C65.6437 9.74146 66.2086 9.90487 66.7128 10.2317C67.2265 10.5585 67.628 11.0254 67.9175 11.6324C68.2162 12.2393 68.3657 12.949 68.3657 13.7614C68.3657 14.5738 68.2162 15.2881 67.9175 15.9044C67.628 16.5114 67.2265 16.9783 66.7128 17.3051C66.2086 17.632 65.6437 17.7954 65.0181 17.7954C64.4858 17.7954 64.0236 17.688 63.6313 17.4733C63.2485 17.2584 62.9451 16.969 62.721 16.6048V21.4511H59.9756V9.83949H62.721V10.932ZM65.5783 13.7614C65.5783 13.2478 65.4382 12.851 65.1581 12.5708C64.8873 12.2814 64.5512 12.1366 64.1496 12.1366C63.7481 12.1366 63.4072 12.2814 63.1271 12.5708C62.8563 12.8603 62.721 13.2571 62.721 13.7614C62.721 14.275 62.8563 14.6765 63.1271 14.966C63.4072 15.2555 63.7481 15.4001 64.1496 15.4001C64.5512 15.4001 64.8873 15.2555 65.1581 14.966C65.4382 14.6671 65.5783 14.2656 65.5783 13.7614Z" fill="#AAAAAA"/>
<path d="M72.2415 7.33228V17.6973H69.4961V7.33228H72.2415Z" fill="#AAAAAA"/>
<path d="M75.1913 9.11111C74.7058 9.11111 74.3136 8.98039 74.0148 8.71893C73.7253 8.44813 73.5806 8.11196 73.5806 7.71043C73.5806 7.29956 73.7253 6.95874 74.0148 6.68794C74.3136 6.41714 74.7058 6.28174 75.1913 6.28174C75.6676 6.28174 76.0504 6.41714 76.3399 6.68794C76.6387 6.95874 76.7882 7.29956 76.7882 7.71043C76.7882 8.11196 76.6387 8.44813 76.3399 8.71893C76.0504 8.98039 75.6676 9.11111 75.1913 9.11111ZM76.5501 9.83946V17.6972H73.8047V9.83946H76.5501Z" fill="#AAAAAA"/>
<path d="M81.4594 17.7954C80.7498 17.7954 80.1148 17.6786 79.5546 17.4451C79.0036 17.2024 78.5647 16.8756 78.2378 16.4648C77.9204 16.0445 77.7429 15.573 77.7056 15.05H80.3669C80.4043 15.3021 80.5209 15.4983 80.7171 15.6383C80.9132 15.7784 81.1559 15.8484 81.4454 15.8484C81.6696 15.8484 81.8469 15.8018 81.9777 15.7084C82.1084 15.615 82.1738 15.4936 82.1738 15.3441C82.1738 15.1481 82.0664 15.0034 81.8517 14.91C81.6368 14.8166 81.2821 14.7139 80.7871 14.6018C80.2268 14.4898 79.7599 14.3636 79.3864 14.2236C79.0129 14.0835 78.6861 13.8548 78.4059 13.5373C78.1352 13.2198 77.9997 12.7903 77.9997 12.2487C77.9997 11.7818 78.1258 11.3616 78.3779 10.9881C78.6301 10.6052 78.9989 10.3017 79.4844 10.0776C79.9794 9.85351 80.5723 9.74146 81.2633 9.74146C82.2906 9.74146 83.0982 9.99357 83.6866 10.4978C84.2748 11.0021 84.6157 11.6651 84.7091 12.4868H82.2298C82.1831 12.2347 82.0711 12.0432 81.8937 11.9125C81.7256 11.7724 81.4968 11.7024 81.2073 11.7024C80.9832 11.7024 80.8104 11.7444 80.6891 11.8285C80.5771 11.9125 80.5209 12.0292 80.5209 12.1786C80.5209 12.3654 80.6283 12.5101 80.8432 12.6129C81.0579 12.7063 81.4034 12.8043 81.8797 12.907C82.4492 13.0284 82.9208 13.1638 83.2943 13.3131C83.6772 13.4626 84.0087 13.7054 84.2888 14.0415C84.5783 14.3684 84.7231 14.8166 84.7231 15.3861C84.7231 15.8438 84.5876 16.2546 84.3168 16.6188C84.0553 16.983 83.6772 17.2724 83.1823 17.4873C82.6967 17.6926 82.1224 17.7954 81.4594 17.7954Z" fill="#AAAAAA"/>
<path d="M96.3398 9.76929C97.3296 9.76929 98.1046 10.0681 98.6649 10.6657C99.2345 11.2633 99.5194 12.0804 99.5194 13.117V17.6971H96.774V13.4811C96.774 13.0608 96.6573 12.7341 96.4239 12.5006C96.1904 12.2672 95.8729 12.1504 95.4714 12.1504C95.0699 12.1504 94.7524 12.2672 94.5189 12.5006C94.2854 12.7341 94.1688 13.0608 94.1688 13.4811V17.6971H91.4234V13.4811C91.4234 13.0608 91.3066 12.7341 91.0733 12.5006C90.8491 12.2672 90.5363 12.1504 90.1348 12.1504C89.7239 12.1504 89.4018 12.2672 89.1683 12.5006C88.9349 12.7341 88.8181 13.0608 88.8181 13.4811V17.6971H86.0728V9.83931H88.8181V10.8758C89.0609 10.5397 89.3738 10.2735 89.7566 10.0774C90.1488 9.872 90.597 9.76929 91.1013 9.76929C91.6801 9.76929 92.1938 9.89535 92.642 10.1475C93.0995 10.3996 93.459 10.7544 93.7205 11.212C94.0006 10.7824 94.3695 10.4369 94.827 10.1755C95.2846 9.90469 95.7889 9.76929 96.3398 9.76929Z" fill="#AAAAAA"/>
<path d="M100.576 13.7614C100.576 12.949 100.721 12.2393 101.01 11.6324C101.309 11.0254 101.711 10.5585 102.215 10.2317C102.729 9.90487 103.298 9.74146 103.924 9.74146C104.465 9.74146 104.932 9.84883 105.324 10.0636C105.717 10.2784 106.02 10.5679 106.235 10.932V9.83949H108.98V17.6973H106.235V16.6048C106.02 16.969 105.712 17.2584 105.31 17.4733C104.918 17.688 104.456 17.7954 103.924 17.7954C103.298 17.7954 102.729 17.632 102.215 17.3051C101.711 16.9783 101.309 16.5114 101.01 15.9044C100.721 15.2881 100.576 14.5738 100.576 13.7614ZM106.235 13.7614C106.235 13.2571 106.095 12.8603 105.815 12.5708C105.544 12.2814 105.208 12.1366 104.806 12.1366C104.395 12.1366 104.054 12.2814 103.784 12.5708C103.513 12.851 103.377 13.2478 103.377 13.7614C103.377 14.2656 103.513 14.6671 103.784 14.966C104.054 15.2555 104.395 15.4001 104.806 15.4001C105.208 15.4001 105.544 15.2555 105.815 14.966C106.095 14.6765 106.235 14.275 106.235 13.7614Z" fill="#AAAAAA"/>
<path d="M113.29 11.226C113.598 10.7778 113.971 10.4229 114.41 10.1615C114.849 9.90001 115.321 9.76929 115.825 9.76929V12.6967H115.055C114.457 12.6967 114.014 12.8135 113.724 13.0468C113.435 13.2803 113.29 13.6865 113.29 14.2655V17.6971H110.544V9.83931H113.29V11.226Z" fill="#AAAAAA"/>
<path d="M121.446 15.3581V17.6973H120.256C118.248 17.6973 117.244 16.7029 117.244 14.7139V12.1226H116.278V9.8395H117.244V7.93457H120.004V9.8395H121.432V12.1226H120.004V14.7559C120.004 14.9706 120.05 15.1248 120.144 15.2181C120.246 15.3115 120.415 15.3581 120.648 15.3581H121.446Z" fill="#AAAAAA"/>
<path fill-rule="evenodd" clip-rule="evenodd" d="M6.89552 17.8752C6.49447 17.8752 6.33302 18.1504 6.33302 18.2971C6.33302 18.444 6.49447 18.719 6.89552 18.719H20.255C21.5753 18.719 22.6456 19.7894 22.6456 21.1096C22.6456 22.3347 21.724 23.3447 20.5363 23.4839V23.5002L10.3408 23.43L8.93459 21.5315H20.255C20.488 21.5315 20.6769 21.3426 20.6769 21.1096C20.6769 20.8766 20.488 20.6877 20.255 20.6877H6.89552C5.58793 20.6877 4.36426 19.7036 4.36426 18.2971C4.36426 16.8906 5.58793 15.9065 6.89552 15.9065H18.8135L20.255 17.8752H6.89552Z" fill="#AAAAAA"/>
<path d="M4.36378 12.2503C4.13078 12.2503 3.94191 12.4391 3.94191 12.6721C3.94191 12.9051 4.13078 13.094 4.36378 13.094H24.3326C25.6529 13.094 26.7233 14.1644 26.7233 15.4846C26.7233 16.805 25.6529 17.8752 24.3326 17.8752H21.3091L19.8326 15.9065H24.3326C24.5656 15.9065 24.7545 15.7176 24.7545 15.4846C24.7545 15.2516 24.5656 15.0627 24.3326 15.0627H4.36378C3.04347 15.0627 1.97314 13.9925 1.97314 12.6721C1.97314 11.3518 3.04347 10.2815 4.36378 10.2815H7.17629L8.58254 12.2503H4.36378Z" fill="#CBCBCB"/>
<path fill-rule="evenodd" clip-rule="evenodd" d="M8.44191 6.62477C8.20891 6.62477 8.02002 6.81364 8.02002 7.04664C8.02002 7.27964 8.20891 7.46852 8.44191 7.46852H21.942C23.2622 7.46852 24.3326 8.53884 24.3326 9.85916C24.3326 11.1323 23.3375 12.1729 22.0826 12.2457V12.2498H9.63722L8.23096 10.281H21.942C22.175 10.281 22.3638 10.0922 22.3638 9.85916C22.3638 9.62616 22.175 9.43728 21.942 9.43728H8.44191C7.12159 9.43728 6.05127 8.36696 6.05127 7.04664C6.05127 5.72633 7.12159 4.65601 8.44191 4.65601H18.567L19.9732 6.62477H8.44191Z" fill="#AAAAAA"/>
</g>
<defs>
<clipPath id="clip0_22997_479">
<rect width="121.125" height="28" fill="white" transform="translate(0.348145)"/>
</clipPath>
</defs>
</svg>
