<svg width="88" height="100" viewBox="0 0 88 100" fill="none" xmlns="http://www.w3.org/2000/svg">
    <path d="M43.8746 99.0674C34.5722 95.237 30.605 90.449 30.605 82.5146C30.605 78.0002 31.973 73.0754 34.5722 68.0138C37.3082 62.8154 39.0866 58.8482 40.0442 56.1122C37.9922 58.301 35.5298 61.721 32.7938 66.2354C27.185 75.401 20.8922 79.7786 13.9154 79.7786C10.085 79.7786 5.84422 78.0002 0.919418 74.3066L0.645818 69.6554C0.645818 56.249 10.9058 51.3242 22.9442 50.777C28.9634 50.5034 33.341 50.093 36.077 49.5458C33.4778 49.1354 28.9634 48.5882 22.8074 48.3146C10.3586 47.7674 0.645818 42.569 0.645818 29.4362L0.919418 24.785C5.98102 21.0914 10.4954 19.1762 14.189 19.1762C20.2082 19.1762 27.3218 23.5538 32.9306 32.5826C35.8034 37.2338 38.129 40.517 39.9074 42.7058C39.0866 40.2434 37.1714 36.413 34.5722 31.0778C31.973 25.8794 30.605 21.0914 30.605 16.577C30.605 9.05297 34.2986 3.99137 43.8746 0.0241665C53.4506 4.26497 57.1442 9.05297 57.1442 16.577C57.1442 21.0914 55.7762 25.8794 53.177 30.941C50.441 36.1394 48.6626 40.1066 47.705 42.8426C49.4834 40.7906 51.809 37.5074 54.8186 32.8562C60.701 23.6906 67.4042 19.1762 73.5602 19.1762C77.3906 19.1762 81.7682 21.0914 86.8298 24.785L87.1034 29.4362C87.1034 43.1162 76.433 47.7674 64.805 48.3146C59.0594 48.5882 54.545 48.9986 51.5354 49.5458C54.2714 50.093 58.1018 50.5034 62.753 50.6402C72.1922 50.9138 79.5794 53.1026 83.8202 58.301C86.009 61.037 87.1034 64.7306 87.1034 69.6554L86.8298 74.3066C82.0418 78.0002 77.6642 79.7786 73.8338 79.7786C66.9938 79.7786 60.701 75.6746 55.0922 66.509C52.2194 61.8578 49.757 58.4378 47.5682 55.9754C48.389 58.8482 50.3042 62.8154 53.0402 68.1506C55.7762 73.349 57.1442 78.137 57.1442 82.5146C57.1442 90.1754 53.3138 95.1002 43.8746 99.0674ZM42.7802 45.5786H43.8746V3.17057C36.6242 6.45377 33.6146 10.1474 33.6146 16.577C33.6146 20.4074 35.1194 25.1954 37.8554 30.941C40.5914 36.6866 42.233 41.6114 42.7802 45.5786ZM47.1578 47.6306L84.0938 26.4266C80.2634 23.6906 76.8434 22.3226 73.8338 22.3226C68.225 22.3226 62.753 25.8794 56.3234 35.729C53.0402 40.7906 49.757 44.3474 46.6106 46.8098L47.1578 47.6306ZM39.9074 48.5882L40.4546 47.6306L3.65542 26.4266L3.51862 29.8466C3.51862 40.2434 11.3162 44.3474 24.449 45.4418C31.0154 45.989 36.2138 46.9466 39.9074 48.5882ZM84.0938 72.8018L84.2306 70.613V69.3818C84.2306 58.5746 75.749 54.0602 62.8898 53.513C56.4602 53.2394 51.3986 52.2818 47.705 50.6402L47.1578 51.461L84.0938 72.8018ZM13.9154 76.769C19.2506 76.769 24.1754 73.349 28.8266 66.509C33.4778 59.8058 37.5818 55.0178 41.0018 52.4186L40.4546 51.5978L3.65542 72.8018C7.34902 75.401 10.769 76.769 13.9154 76.769ZM43.8746 95.921C51.125 92.6378 54.1346 88.9442 54.1346 82.5146C54.1346 78.5474 52.7666 73.7594 50.0306 68.0138C47.2946 62.2682 45.5162 57.4802 44.969 53.3762H43.8746V95.921Z"
          fill="#343637"/>
</svg>
