<svg width="328" height="289" viewBox="0 0 328 289" fill="none" xmlns="http://www.w3.org/2000/svg">
<rect x="106.5" y="85.5" width="115" height="115" rx="57.5" stroke="white"/>
<rect x="66.5" y="45.5" width="196" height="196" rx="98" stroke="white"/>
<rect x="20.5" y="0.5" width="287" height="286" rx="143" stroke="white"/>
<g filter="url(#filter0_f_20823_269885)">
<circle cx="2" cy="2" r="2" transform="matrix(-1 0 0 1 256 253)" fill="white"/>
</g>
<g filter="url(#filter1_f_20823_269885)">
<ellipse cx="1.5" cy="2" rx="1.5" ry="2" transform="matrix(-1 0 0 1 309 135)" fill="white"/>
</g>
<g filter="url(#filter2_f_20823_269885)">
<circle cx="2" cy="2" r="2" transform="matrix(-1 0 0 1 52 55)" fill="white"/>
</g>
<g filter="url(#filter3_f_20823_269885)">
<circle cx="2" cy="2" r="2" transform="matrix(-1 0 0 1 72 168)" fill="white"/>
</g>
<g filter="url(#filter4_f_20823_269885)">
<circle cx="2" cy="2" r="2" transform="matrix(-1 0 0 1 209 104)" fill="white"/>
</g>
<g filter="url(#filter5_d_20823_269885)">
<rect x="4" y="136" width="32" height="32" rx="16" fill="url(#paint0_linear_20823_269885)" shape-rendering="crispEdges"/>
<path d="M27 152.934C27 153.406 26.8965 153.858 26.698 154.264C26.6654 154.33 26.6484 154.403 26.6484 154.476C26.6484 154.55 26.6654 154.623 26.698 154.689C26.887 155.085 27 155.528 27 156C27 157.66 25.66 159 24 159H16C14.34 159 13 157.66 13 156C13 155.528 13.113 155.085 13.302 154.689C13.3345 154.622 13.3515 154.55 13.3515 154.476C13.3515 154.403 13.3345 154.33 13.302 154.264C13.1046 153.848 13.0015 153.394 13 152.934C12.9996 152.332 13.1759 151.742 13.507 151.239L13.5095 151.236C13.8296 150.745 13.9999 150.171 13.9995 149.585V149.575C13.9995 149.171 14.0791 148.771 14.2337 148.398C14.3883 148.025 14.615 147.686 14.9007 147.4C15.1864 147.115 15.5255 146.888 15.8988 146.734C16.272 146.579 16.6721 146.5 17.076 146.5C17.246 146.5 17.406 146.415 17.5005 146.283C17.7855 145.886 18.1608 145.563 18.5954 145.34C19.03 145.117 19.5115 145 20 145C20.4886 145 20.9701 145.117 21.4048 145.34C21.8395 145.563 22.2149 145.886 22.5 146.283C22.5945 146.424 22.755 146.5 22.925 146.5C23.7405 146.5 24.5227 146.824 25.0994 147.401C25.676 147.977 26 148.759 26 149.575V149.585C26 150.17 26.17 150.745 26.4905 151.236L26.4925 151.239C26.5955 151.389 26.6795 151.549 26.7545 151.717H26.7495C26.9105 152.089 27 152.498 27 152.934Z" fill="#212121"/>
<path d="M26.0004 152.95C26.0004 153.147 25.9616 153.342 25.8862 153.524C25.8108 153.706 25.7003 153.872 25.5611 154.011C25.4218 154.15 25.2564 154.261 25.0744 154.336C24.8924 154.411 24.6974 154.45 24.5004 154.45C24.3034 154.45 24.1084 154.411 23.9264 154.336C23.7444 154.261 23.579 154.15 23.4397 154.011C23.3004 153.872 23.19 153.706 23.1146 153.524C23.0392 153.342 23.0004 153.147 23.0004 152.95C23.0004 152.552 23.1584 152.171 23.4397 151.89C23.721 151.608 24.1026 151.45 24.5004 151.45C24.8982 151.45 25.2797 151.608 25.5611 151.89C25.8424 152.171 26.0004 152.552 26.0004 152.95ZM17.1504 153C17.1504 153.398 16.9924 153.78 16.7111 154.061C16.4297 154.342 16.0482 154.5 15.6504 154.5C15.2526 154.5 14.871 154.342 14.5897 154.061C14.3084 153.78 14.1504 153.398 14.1504 153C14.1504 152.602 14.3084 152.221 14.5897 151.94C14.871 151.658 15.2526 151.5 15.6504 151.5C16.0482 151.5 16.4297 151.658 16.7111 151.94C16.9924 152.221 17.1504 152.602 17.1504 153Z" fill="#F4C6AD"/>
<path d="M15.2575 151.773H15.269L15.2595 151.525L15.25 151.24C15.269 150.355 15.785 150.013 16.005 149.899C16.0203 149.894 16.0363 149.887 16.053 149.88C16.07 149.872 16.086 149.866 16.101 149.861C16.6046 149.634 17.0015 149.222 17.2095 148.71L17.286 148.529C17.3027 148.488 17.3302 148.452 17.3655 148.426C17.4009 148.399 17.4428 148.382 17.4869 148.377C17.5309 148.373 17.5754 148.38 17.6158 148.398C17.6561 148.416 17.6907 148.445 17.716 148.482C18.0476 148.964 18.4916 149.358 19.0097 149.63C19.5278 149.902 20.1044 150.043 20.6895 150.042H23.691C23.859 150.042 24.7 150.123 24.75 151.284L24.6395 154.009C24.5245 156.621 22.4845 158.376 19.994 158.376C17.504 158.376 15.4635 156.621 15.3485 154.009L15.2575 151.773Z" fill="#FFD7C2"/>
<path d="M19.6436 152.763L19.1486 154.348C19.1251 154.424 19.1198 154.504 19.1332 154.582C19.1465 154.66 19.1781 154.734 19.2254 154.797C19.2727 154.861 19.3343 154.912 19.4052 154.948C19.4762 154.983 19.5544 155.001 19.6336 155H20.3666C20.7106 155 20.9531 154.669 20.8516 154.348L20.3566 152.763C20.2501 152.412 19.7551 152.412 19.6436 152.763" fill="#E5AF93"/>
<path d="M20 155.698C19.5512 155.701 19.1082 155.596 18.7085 155.392C18.581 155.327 18.4435 155.471 18.524 155.587C18.6856 155.83 18.905 156.029 19.1626 156.167C19.4202 156.304 19.7079 156.376 20 156.375C20.292 156.376 20.5798 156.304 20.8374 156.167C21.095 156.029 21.3144 155.83 21.476 155.587C21.556 155.466 21.419 155.327 21.2915 155.392C20.8917 155.596 20.4488 155.701 20 155.698Z" fill="#990838"/>
<path d="M17.4998 151.7C17.9998 151.7 18.5123 152.1 18.7623 152.5C18.4628 152.592 18.1848 152.663 17.9133 152.733C17.5948 152.814 17.2858 152.893 16.9623 153L16.4623 152.65C16.2623 152.5 16.2123 152.25 16.5123 152.05C16.8123 151.8 17.1498 151.7 17.4998 151.7ZM22.5998 151.7C22.0998 151.7 21.5873 152.1 21.3373 152.5C21.6368 152.592 21.9148 152.663 22.1863 152.733C22.5043 152.814 22.8138 152.893 23.1373 153L23.6373 152.65C23.8373 152.5 23.8873 152.25 23.5873 152.05C23.2873 151.8 22.9498 151.7 22.5998 151.7Z" fill="black"/>
<path d="M16.5073 152.683C16.5795 152.396 16.7473 152.143 16.983 151.964C17.2187 151.785 17.5082 151.691 17.8041 151.699C18.1 151.706 18.3845 151.814 18.6108 152.005C18.8372 152.195 18.992 152.457 19.0498 152.747C19.0554 152.778 19.0542 152.81 19.0461 152.841C19.038 152.871 19.0233 152.9 19.003 152.924C18.9827 152.948 18.9573 152.967 18.9286 152.98C18.9 152.994 18.8688 153 18.8373 153H16.7588C16.7198 153 16.6812 152.992 16.646 152.975C16.6108 152.958 16.5798 152.934 16.5556 152.903C16.5313 152.873 16.5143 152.837 16.506 152.799C16.4976 152.761 16.498 152.721 16.5073 152.683ZM23.4923 152.683C23.42 152.403 23.2569 152.154 23.0283 151.976C22.7996 151.798 22.5185 151.701 22.2288 151.7C21.9272 151.699 21.6347 151.803 21.4015 151.995C21.1682 152.186 21.0087 152.452 20.9503 152.748C20.9447 152.779 20.946 152.811 20.9541 152.841C20.9622 152.871 20.9769 152.9 20.9971 152.924C21.0173 152.948 21.0426 152.967 21.0712 152.98C21.0997 152.993 21.1308 153 21.1623 153H23.2408C23.2798 153 23.3183 152.992 23.3535 152.975C23.3888 152.958 23.4197 152.934 23.4439 152.903C23.4682 152.873 23.4852 152.837 23.4935 152.799C23.5019 152.761 23.5015 152.721 23.4923 152.683Z" fill="white"/>
<path d="M17.1294 152.778C17.1294 152.66 17.1548 152.542 17.2039 152.434C17.253 152.326 17.3247 152.23 17.4141 152.152C17.5035 152.074 17.6085 152.016 17.7222 151.982C17.8359 151.947 17.9556 151.938 18.0732 151.954C18.1908 151.97 18.3036 152.011 18.4041 152.074C18.5046 152.137 18.5904 152.221 18.6558 152.32C18.7212 152.419 18.7646 152.531 18.7832 152.648C18.8017 152.766 18.795 152.885 18.7634 153H17.1589C17.1392 152.928 17.1296 152.853 17.1294 152.778ZM22.8704 152.778C22.8704 152.315 22.4954 151.946 22.0364 151.946C21.9271 151.945 21.8187 151.966 21.7176 152.008C21.6165 152.05 21.5246 152.111 21.4475 152.188C21.3703 152.266 21.3093 152.358 21.268 152.459C21.2267 152.561 21.2059 152.669 21.2069 152.778C21.2069 152.857 21.2169 152.931 21.2369 153H22.8409C22.8609 152.926 22.8709 152.857 22.8709 152.778" fill="#7D4533"/>
<path d="M17.9635 152.306C18.0452 152.305 18.1256 152.326 18.1968 152.366C18.268 152.406 18.3276 152.464 18.3699 152.534C18.4122 152.604 18.4357 152.684 18.438 152.765C18.4404 152.847 18.4216 152.928 18.3835 153H17.544C17.5059 152.928 17.4871 152.847 17.4895 152.765C17.4918 152.684 17.5153 152.604 17.5576 152.534C17.5999 152.464 17.6595 152.406 17.7307 152.366C17.8019 152.326 17.8823 152.305 17.964 152.306M22.0315 152.306C21.9498 152.305 21.8694 152.326 21.7982 152.366C21.727 152.406 21.6674 152.464 21.6251 152.534C21.5828 152.604 21.5593 152.684 21.557 152.765C21.5546 152.847 21.5734 152.928 21.6115 153H22.451C22.4891 152.928 22.5079 152.847 22.5055 152.765C22.5032 152.684 22.4797 152.604 22.4374 152.534C22.3951 152.464 22.3355 152.406 22.2643 152.366C22.1931 152.326 22.1132 152.305 22.0315 152.306Z" fill="black"/>
<path d="M17.8248 152.46C17.8248 152.543 17.7588 152.61 17.6773 152.61C17.6379 152.61 17.6002 152.593 17.5725 152.565C17.5448 152.537 17.5293 152.499 17.5293 152.46C17.5293 152.377 17.5953 152.31 17.6773 152.31C17.7593 152.31 17.8253 152.377 17.8253 152.46M21.9228 152.46C21.9228 152.543 21.8563 152.61 21.7743 152.61C21.7349 152.61 21.6972 152.593 21.6695 152.565C21.6418 152.537 21.6263 152.499 21.6263 152.46C21.6263 152.377 21.6928 152.31 21.7743 152.31C21.8563 152.31 21.9228 152.377 21.9228 152.46Z" fill="white"/>
<path d="M16.8326 151.292L16.8286 151.295C16.7719 151.326 16.7054 151.334 16.6429 151.317C16.5804 151.301 16.5269 151.26 16.4936 151.205C16.4603 151.149 16.4499 151.083 16.4644 151.02C16.479 150.957 16.5174 150.902 16.5716 150.866L16.5721 150.866L16.5731 150.865L16.5761 150.863L16.5846 150.858C16.6295 150.832 16.6757 150.808 16.7231 150.787C16.8151 150.743 16.9456 150.687 17.1056 150.636C17.4221 150.535 17.8656 150.45 18.3436 150.534C18.376 150.54 18.4069 150.552 18.4345 150.57C18.4622 150.588 18.4862 150.61 18.505 150.637C18.5238 150.664 18.5372 150.695 18.5443 150.727C18.5514 150.759 18.5521 150.792 18.5464 150.824C18.5407 150.857 18.5286 150.887 18.511 150.915C18.4933 150.943 18.4704 150.967 18.4435 150.986C18.4166 151.004 18.3862 151.018 18.3542 151.025C18.3221 151.032 18.289 151.033 18.2566 151.027C17.8851 150.961 17.5281 151.026 17.2576 151.112C17.1107 151.159 16.9684 151.22 16.8326 151.292ZM23.4286 150.866L23.4276 150.865L23.4251 150.863L23.4161 150.858L23.3861 150.841C23.2292 150.759 23.0652 150.69 22.8961 150.636C22.5786 150.535 22.1356 150.45 21.6571 150.534C21.5918 150.546 21.5338 150.583 21.4957 150.637C21.4577 150.692 21.4428 150.759 21.4544 150.824C21.4659 150.89 21.5029 150.948 21.5573 150.986C21.6116 151.024 21.6788 151.039 21.7441 151.027C22.1156 150.961 22.4726 151.026 22.7436 151.112C22.8904 151.159 23.0325 151.22 23.1681 151.292L23.1721 151.295C23.229 151.329 23.2971 151.339 23.3614 151.323C23.4258 151.307 23.481 151.266 23.5151 151.209C23.5492 151.152 23.5593 151.084 23.5432 151.02C23.527 150.955 23.4855 150.9 23.4286 150.866Z" fill="#212121"/>
</g>
<g filter="url(#filter6_d_20823_269885)">
<rect x="193" y="172" width="27" height="27" rx="13.5" fill="url(#paint1_linear_20823_269885)" shape-rendering="crispEdges"/>
<path d="M212.707 182.035C212.446 181.575 212.026 181.226 211.526 181.055C211.001 180.875 210.551 180.53 210.265 180.055C210.073 179.734 209.801 179.469 209.476 179.284C209.151 179.099 208.784 179.001 208.411 179C208.109 179 207.822 179.065 207.56 179.175C207.204 179.33 206.804 179.33 206.448 179.175C206.177 179.061 205.886 179.002 205.593 179C204.816 179 204.139 179.41 203.753 180.025C203.452 180.506 202.998 180.871 202.463 181.06C201.94 181.244 201.507 181.619 201.251 182.11C201.066 182.467 200.98 182.867 201.004 183.268C201.027 183.67 201.159 184.057 201.385 184.39C201.548 184.63 201.637 184.915 201.637 185.205V185.773C201.904 185.584 201.662 186.146 201.625 186.309V188.993C201.625 189.826 202.121 190.567 202.875 190.875H211.125C211.879 190.567 212.375 189.825 212.375 188.993V186.559C212.309 186.306 211.919 185.464 212.356 185.768V185.205C212.356 184.915 212.445 184.63 212.608 184.39C212.845 184.047 212.98 183.644 212.998 183.227C213.015 182.81 212.915 182.397 212.707 182.035Z" fill="#593B39"/>
<path d="M204 187C204 187.197 203.961 187.392 203.886 187.574C203.81 187.756 203.7 187.921 203.561 188.061C203.421 188.2 203.256 188.31 203.074 188.386C202.892 188.461 202.697 188.5 202.5 188.5C202.303 188.5 202.108 188.461 201.926 188.386C201.744 188.31 201.579 188.2 201.439 188.061C201.3 187.921 201.19 187.756 201.114 187.574C201.039 187.392 201 187.197 201 187C201 186.602 201.158 186.221 201.439 185.939C201.721 185.658 202.102 185.5 202.5 185.5C202.898 185.5 203.279 185.658 203.561 185.939C203.842 186.221 204 186.602 204 187ZM213 187C213 187.197 212.961 187.392 212.886 187.574C212.81 187.756 212.7 187.921 212.561 188.061C212.421 188.2 212.256 188.31 212.074 188.386C211.892 188.461 211.697 188.5 211.5 188.5C211.303 188.5 211.108 188.461 210.926 188.386C210.744 188.31 210.579 188.2 210.439 188.061C210.3 187.921 210.19 187.756 210.114 187.574C210.039 187.392 210 187.197 210 187C210 186.602 210.158 186.221 210.439 185.939C210.721 185.658 211.102 185.5 211.5 185.5C211.898 185.5 212.279 185.658 212.561 185.939C212.842 186.221 213 186.602 213 187Z" fill="#BB806E"/>
<path d="M202.221 185.521L202.502 189.825C202.618 190.704 203.049 191.511 203.716 192.095C204.382 192.679 205.239 193.001 206.125 193H207.884C208.77 193.001 209.626 192.679 210.293 192.095C210.96 191.511 211.391 190.704 211.506 189.825L211.775 185.528L211.751 185.523L211.808 184.565C211.798 183.85 211.235 183.26 210.523 183.23H209.218C208.781 183.229 208.353 183.102 207.987 182.863C207.622 182.624 207.333 182.285 207.156 181.885C207.11 181.77 207.031 181.672 206.929 181.602C206.826 181.533 206.706 181.496 206.582 181.495H205.395C203.675 181.495 202.25 182.905 202.25 184.645V185.516L202.221 185.521Z" fill="#C68D7B"/>
<path d="M206.644 186.763L206.149 188.348C206.125 188.424 206.12 188.504 206.133 188.582C206.147 188.66 206.178 188.734 206.225 188.797C206.273 188.861 206.334 188.912 206.405 188.948C206.476 188.983 206.554 189.001 206.634 189H207.367C207.711 189 207.953 188.669 207.852 188.348L207.357 186.763C207.25 186.412 206.755 186.412 206.644 186.763" fill="#AB6A55"/>
<path d="M207 189.948C206.551 189.951 206.108 189.846 205.708 189.642C205.581 189.577 205.443 189.721 205.524 189.837C205.686 190.08 205.905 190.279 206.163 190.417C206.42 190.554 206.708 190.626 207 190.625C207.292 190.626 207.58 190.554 207.837 190.417C208.095 190.279 208.314 190.08 208.476 189.837C208.556 189.716 208.419 189.577 208.291 189.642C207.892 189.846 207.449 189.951 207 189.948Z" fill="#990838"/>
<path d="M203.507 186.683C203.58 186.396 203.747 186.143 203.983 185.964C204.219 185.785 204.508 185.691 204.804 185.699C205.1 185.706 205.384 185.814 205.611 186.005C205.837 186.195 205.992 186.457 206.05 186.747C206.055 186.778 206.054 186.81 206.046 186.841C206.038 186.871 206.023 186.9 206.003 186.924C205.983 186.948 205.957 186.967 205.929 186.98C205.9 186.994 205.869 187 205.837 187H203.759C203.72 187 203.681 186.992 203.646 186.975C203.611 186.958 203.58 186.934 203.556 186.903C203.531 186.873 203.514 186.837 203.506 186.799C203.498 186.761 203.498 186.721 203.507 186.683ZM210.492 186.683C210.42 186.403 210.257 186.154 210.028 185.976C209.8 185.798 209.518 185.701 209.229 185.7C208.927 185.699 208.635 185.803 208.401 185.995C208.168 186.186 208.009 186.452 207.95 186.748C207.945 186.779 207.946 186.811 207.954 186.841C207.962 186.871 207.977 186.9 207.997 186.924C208.017 186.948 208.043 186.967 208.071 186.98C208.1 186.993 208.131 187 208.162 187H210.241C210.28 187 210.318 186.992 210.354 186.975C210.389 186.958 210.42 186.934 210.444 186.903C210.468 186.873 210.485 186.837 210.494 186.799C210.502 186.761 210.501 186.721 210.492 186.683Z" fill="white"/>
<path d="M204.129 186.778C204.129 186.66 204.155 186.542 204.204 186.434C204.253 186.326 204.325 186.23 204.414 186.152C204.503 186.074 204.609 186.016 204.722 185.982C204.836 185.947 204.956 185.938 205.073 185.954C205.191 185.97 205.304 186.011 205.404 186.074C205.505 186.137 205.59 186.221 205.656 186.32C205.721 186.419 205.765 186.531 205.783 186.648C205.802 186.766 205.795 186.885 205.763 187H204.159C204.139 186.928 204.13 186.853 204.129 186.778ZM209.87 186.778C209.87 186.315 209.495 185.946 209.036 185.946C208.927 185.945 208.819 185.966 208.718 186.008C208.616 186.05 208.525 186.111 208.447 186.188C208.37 186.266 208.309 186.358 208.268 186.459C208.227 186.561 208.206 186.669 208.207 186.778C208.207 186.857 208.217 186.931 208.237 187H209.841C209.861 186.926 209.871 186.857 209.871 186.778" fill="#7D4533"/>
<path d="M204.963 186.306C205.045 186.305 205.126 186.326 205.197 186.366C205.268 186.406 205.328 186.464 205.37 186.534C205.412 186.604 205.436 186.684 205.438 186.765C205.44 186.847 205.422 186.928 205.383 187H204.544C204.506 186.928 204.487 186.847 204.489 186.765C204.492 186.684 204.515 186.604 204.558 186.534C204.6 186.464 204.66 186.406 204.731 186.366C204.802 186.326 204.882 186.305 204.964 186.306M209.031 186.306C208.95 186.305 208.869 186.326 208.798 186.366C208.727 186.406 208.667 186.464 208.625 186.534C208.583 186.604 208.559 186.684 208.557 186.765C208.555 186.847 208.573 186.928 208.611 187H209.451C209.489 186.928 209.508 186.847 209.506 186.765C209.503 186.684 209.48 186.604 209.437 186.534C209.395 186.464 209.335 186.406 209.264 186.366C209.193 186.326 209.113 186.305 209.031 186.306Z" fill="black"/>
<path d="M204.825 186.46C204.825 186.543 204.759 186.61 204.677 186.61C204.638 186.61 204.6 186.593 204.573 186.565C204.545 186.537 204.529 186.499 204.529 186.46C204.529 186.377 204.595 186.31 204.677 186.31C204.759 186.31 204.825 186.377 204.825 186.46M208.923 186.46C208.923 186.543 208.856 186.61 208.774 186.61C208.735 186.61 208.697 186.593 208.67 186.565C208.642 186.537 208.626 186.499 208.626 186.46C208.626 186.377 208.693 186.31 208.774 186.31C208.856 186.31 208.923 186.377 208.923 186.46Z" fill="white"/>
<path d="M209.839 184.087C210.126 184.177 210.316 184.328 210.48 184.47C210.532 184.515 210.563 184.579 210.568 184.647C210.573 184.716 210.55 184.783 210.505 184.835C210.46 184.887 210.396 184.918 210.328 184.923C210.259 184.928 210.192 184.905 210.14 184.86C209.993 184.732 209.868 184.638 209.683 184.58C209.494 184.52 209.22 184.492 208.771 184.547C208.738 184.551 208.703 184.548 208.671 184.539C208.638 184.53 208.607 184.515 208.581 184.494C208.554 184.473 208.531 184.447 208.515 184.417C208.498 184.388 208.487 184.355 208.483 184.321C208.479 184.288 208.482 184.253 208.491 184.221C208.5 184.188 208.515 184.157 208.536 184.131C208.557 184.104 208.583 184.081 208.613 184.065C208.642 184.048 208.675 184.037 208.708 184.033C209.2 183.973 209.556 183.997 209.839 184.087ZM204.178 184.194C204.025 184.254 203.904 184.318 203.82 184.369L203.681 184.461C203.627 184.503 203.592 184.564 203.583 184.632C203.574 184.7 203.593 184.769 203.635 184.823C203.677 184.878 203.739 184.913 203.807 184.922C203.875 184.93 203.944 184.912 203.998 184.87L204 184.868L204.015 184.857L204.085 184.812C204.476 184.585 204.93 184.492 205.378 184.547C205.446 184.555 205.515 184.536 205.569 184.494C205.623 184.452 205.658 184.39 205.666 184.322C205.675 184.253 205.656 184.185 205.614 184.131C205.571 184.077 205.509 184.041 205.441 184.033C205.013 183.981 204.579 184.036 204.178 184.194Z" fill="#593B39"/>
</g>
<g filter="url(#filter7_d_20823_269885)">
<rect x="101" y="102" width="27" height="27" rx="13.5" fill="url(#paint2_linear_20823_269885)" shape-rendering="crispEdges"/>
<path d="M120.707 112.035C120.446 111.575 120.026 111.226 119.526 111.055C119.001 110.875 118.551 110.53 118.265 110.055C118.073 109.734 117.801 109.469 117.476 109.284C117.151 109.099 116.784 109.001 116.411 109C116.109 109 115.822 109.065 115.56 109.175C115.204 109.33 114.804 109.33 114.448 109.175C114.177 109.061 113.886 109.002 113.593 109C112.816 109 112.139 109.41 111.753 110.025C111.452 110.506 110.998 110.871 110.463 111.06C109.94 111.244 109.507 111.619 109.251 112.11C109.066 112.467 108.98 112.867 109.004 113.268C109.027 113.67 109.159 114.057 109.385 114.39C109.548 114.63 109.637 114.915 109.637 115.205V115.773C109.904 115.584 109.662 116.146 109.625 116.309V118.993C109.625 119.826 110.121 120.567 110.875 120.875H119.125C119.879 120.567 120.375 119.825 120.375 118.993V116.559C120.309 116.306 119.919 115.464 120.356 115.768V115.205C120.356 114.915 120.445 114.63 120.608 114.39C120.845 114.047 120.98 113.644 120.998 113.227C121.015 112.81 120.915 112.397 120.707 112.035Z" fill="#212121"/>
<path d="M112 117C112 117.197 111.961 117.392 111.886 117.574C111.81 117.756 111.7 117.921 111.561 118.061C111.421 118.2 111.256 118.31 111.074 118.386C110.892 118.461 110.697 118.5 110.5 118.5C110.303 118.5 110.108 118.461 109.926 118.386C109.744 118.31 109.579 118.2 109.439 118.061C109.3 117.921 109.19 117.756 109.114 117.574C109.039 117.392 109 117.197 109 117C109 116.602 109.158 116.221 109.439 115.939C109.721 115.658 110.102 115.5 110.5 115.5C110.898 115.5 111.279 115.658 111.561 115.939C111.842 116.221 112 116.602 112 117ZM121 117C121 117.197 120.961 117.392 120.886 117.574C120.81 117.756 120.7 117.921 120.561 118.061C120.421 118.2 120.256 118.31 120.074 118.386C119.892 118.461 119.697 118.5 119.5 118.5C119.303 118.5 119.108 118.461 118.926 118.386C118.744 118.31 118.579 118.2 118.439 118.061C118.3 117.921 118.19 117.756 118.114 117.574C118.039 117.392 118 117.197 118 117C118 116.602 118.158 116.221 118.439 115.939C118.721 115.658 119.102 115.5 119.5 115.5C119.898 115.5 120.279 115.658 120.561 115.939C120.842 116.221 121 116.602 121 117Z" fill="#F4C6AD"/>
<path d="M110.221 115.521L110.502 119.825C110.618 120.704 111.049 121.511 111.716 122.095C112.382 122.679 113.239 123.001 114.125 123H115.884C116.77 123.001 117.626 122.679 118.293 122.095C118.96 121.511 119.391 120.704 119.506 119.825L119.775 115.528L119.751 115.523L119.808 114.565C119.798 113.85 119.235 113.26 118.523 113.23H117.218C116.781 113.229 116.353 113.102 115.987 112.863C115.622 112.624 115.333 112.285 115.156 111.885C115.11 111.77 115.031 111.672 114.929 111.602C114.826 111.533 114.706 111.496 114.582 111.495H113.395C111.675 111.495 110.25 112.905 110.25 114.645V115.516L110.221 115.521Z" fill="#FFD7C2"/>
<path d="M114.644 116.763L114.149 118.348C114.125 118.424 114.12 118.504 114.133 118.582C114.147 118.66 114.178 118.734 114.225 118.797C114.273 118.861 114.334 118.912 114.405 118.948C114.476 118.983 114.554 119.001 114.634 119H115.367C115.711 119 115.953 118.669 115.852 118.348L115.357 116.763C115.25 116.412 114.755 116.412 114.644 116.763" fill="#E5AF93"/>
<path d="M115 119.948C114.551 119.951 114.108 119.846 113.708 119.642C113.581 119.577 113.443 119.721 113.524 119.837C113.686 120.08 113.905 120.279 114.163 120.417C114.42 120.554 114.708 120.626 115 120.625C115.292 120.626 115.58 120.554 115.837 120.417C116.095 120.279 116.314 120.08 116.476 119.837C116.556 119.716 116.419 119.577 116.291 119.642C115.892 119.846 115.449 119.951 115 119.948Z" fill="#990838"/>
<path d="M111.507 116.683C111.58 116.396 111.747 116.143 111.983 115.964C112.219 115.785 112.508 115.691 112.804 115.699C113.1 115.706 113.384 115.814 113.611 116.005C113.837 116.195 113.992 116.457 114.05 116.747C114.055 116.778 114.054 116.81 114.046 116.841C114.038 116.871 114.023 116.9 114.003 116.924C113.983 116.948 113.957 116.967 113.929 116.98C113.9 116.994 113.869 117 113.837 117H111.759C111.72 117 111.681 116.992 111.646 116.975C111.611 116.958 111.58 116.934 111.556 116.903C111.531 116.873 111.514 116.837 111.506 116.799C111.498 116.761 111.498 116.721 111.507 116.683ZM118.492 116.683C118.42 116.403 118.257 116.154 118.028 115.976C117.8 115.798 117.518 115.701 117.229 115.7C116.927 115.699 116.635 115.803 116.401 115.995C116.168 116.186 116.009 116.452 115.95 116.748C115.945 116.779 115.946 116.811 115.954 116.841C115.962 116.871 115.977 116.9 115.997 116.924C116.017 116.948 116.043 116.967 116.071 116.98C116.1 116.993 116.131 117 116.162 117H118.241C118.28 117 118.318 116.992 118.354 116.975C118.389 116.958 118.42 116.934 118.444 116.903C118.468 116.873 118.485 116.837 118.494 116.799C118.502 116.761 118.501 116.721 118.492 116.683Z" fill="white"/>
<path d="M112.129 116.778C112.129 116.66 112.155 116.542 112.204 116.434C112.253 116.326 112.325 116.23 112.414 116.152C112.503 116.074 112.609 116.016 112.722 115.982C112.836 115.947 112.956 115.938 113.073 115.954C113.191 115.97 113.304 116.011 113.404 116.074C113.505 116.137 113.59 116.221 113.656 116.32C113.721 116.419 113.765 116.531 113.783 116.648C113.802 116.766 113.795 116.885 113.763 117H112.159C112.139 116.928 112.13 116.853 112.129 116.778ZM117.87 116.778C117.87 116.315 117.495 115.946 117.036 115.946C116.927 115.945 116.819 115.966 116.718 116.008C116.616 116.05 116.525 116.111 116.447 116.188C116.37 116.266 116.309 116.358 116.268 116.459C116.227 116.561 116.206 116.669 116.207 116.778C116.207 116.857 116.217 116.931 116.237 117H117.841C117.861 116.926 117.871 116.857 117.871 116.778" fill="#7D4533"/>
<path d="M112.963 116.306C113.045 116.305 113.126 116.326 113.197 116.366C113.268 116.406 113.328 116.464 113.37 116.534C113.412 116.604 113.436 116.684 113.438 116.765C113.44 116.847 113.422 116.928 113.383 117H112.544C112.506 116.928 112.487 116.847 112.489 116.765C112.492 116.684 112.515 116.604 112.558 116.534C112.6 116.464 112.66 116.406 112.731 116.366C112.802 116.326 112.882 116.305 112.964 116.306M117.031 116.306C116.95 116.305 116.869 116.326 116.798 116.366C116.727 116.406 116.667 116.464 116.625 116.534C116.583 116.604 116.559 116.684 116.557 116.765C116.555 116.847 116.573 116.928 116.611 117H117.451C117.489 116.928 117.508 116.847 117.506 116.765C117.503 116.684 117.48 116.604 117.437 116.534C117.395 116.464 117.335 116.406 117.264 116.366C117.193 116.326 117.113 116.305 117.031 116.306Z" fill="black"/>
<path d="M112.825 116.46C112.825 116.543 112.759 116.61 112.677 116.61C112.638 116.61 112.6 116.593 112.573 116.565C112.545 116.537 112.529 116.499 112.529 116.46C112.529 116.377 112.595 116.31 112.677 116.31C112.759 116.31 112.825 116.377 112.825 116.46M116.923 116.46C116.923 116.543 116.856 116.61 116.774 116.61C116.735 116.61 116.697 116.593 116.67 116.565C116.642 116.537 116.626 116.499 116.626 116.46C116.626 116.377 116.693 116.31 116.774 116.31C116.856 116.31 116.923 116.377 116.923 116.46Z" fill="white"/>
<path d="M117.839 114.087C118.126 114.177 118.316 114.328 118.48 114.47C118.532 114.515 118.563 114.579 118.568 114.647C118.573 114.716 118.55 114.783 118.505 114.835C118.46 114.887 118.396 114.918 118.328 114.923C118.259 114.928 118.192 114.905 118.14 114.86C117.993 114.732 117.868 114.638 117.683 114.58C117.494 114.52 117.22 114.492 116.771 114.547C116.738 114.551 116.703 114.548 116.671 114.539C116.638 114.53 116.607 114.515 116.581 114.494C116.554 114.473 116.531 114.447 116.515 114.417C116.498 114.388 116.487 114.355 116.483 114.321C116.479 114.288 116.482 114.253 116.491 114.221C116.5 114.188 116.515 114.157 116.536 114.131C116.557 114.104 116.583 114.081 116.613 114.065C116.642 114.048 116.675 114.037 116.708 114.033C117.2 113.973 117.556 113.997 117.839 114.087ZM112.178 114.194C112.025 114.254 111.904 114.318 111.82 114.369L111.681 114.461C111.627 114.503 111.592 114.564 111.583 114.632C111.574 114.7 111.593 114.769 111.635 114.823C111.677 114.878 111.739 114.913 111.807 114.922C111.875 114.93 111.944 114.912 111.998 114.87L112 114.868L112.015 114.857L112.085 114.812C112.476 114.585 112.93 114.492 113.378 114.547C113.446 114.555 113.515 114.536 113.569 114.494C113.623 114.452 113.658 114.39 113.666 114.322C113.675 114.253 113.656 114.185 113.614 114.131C113.571 114.077 113.509 114.041 113.441 114.033C113.013 113.981 112.579 114.036 112.178 114.194Z" fill="#212121"/>
</g>
<g filter="url(#filter8_d_20823_269885)">
<rect x="88" y="257" width="27" height="27" rx="13.5" fill="url(#paint3_linear_20823_269885)" shape-rendering="crispEdges"/>
<path d="M109 271.934C109 272.406 108.897 272.858 108.698 273.264C108.665 273.33 108.648 273.403 108.648 273.476C108.648 273.55 108.665 273.623 108.698 273.689C108.887 274.085 109 274.528 109 275C109 276.66 107.66 278 106 278H98C96.34 278 95 276.66 95 275C95 274.528 95.113 274.085 95.302 273.689C95.3345 273.622 95.3515 273.55 95.3515 273.476C95.3515 273.403 95.3345 273.33 95.302 273.264C95.1046 272.848 95.0015 272.394 95 271.934C94.9996 271.332 95.1759 270.742 95.507 270.239L95.5095 270.236C95.8296 269.745 95.9999 269.171 95.9995 268.585V268.575C95.9995 268.171 96.0791 267.771 96.2337 267.398C96.3883 267.025 96.615 266.686 96.9007 266.4C97.1864 266.115 97.5255 265.888 97.8988 265.734C98.272 265.579 98.6721 265.5 99.076 265.5C99.246 265.5 99.406 265.415 99.5005 265.283C99.7855 264.886 100.161 264.563 100.595 264.34C101.03 264.117 101.511 264 102 264C102.489 264 102.97 264.117 103.405 264.34C103.84 264.563 104.215 264.886 104.5 265.283C104.595 265.424 104.755 265.5 104.925 265.5C105.741 265.5 106.523 265.824 107.099 266.401C107.676 266.977 108 267.759 108 268.575V268.585C108 269.17 108.17 269.745 108.491 270.236L108.493 270.239C108.596 270.389 108.68 270.549 108.755 270.717H108.75C108.911 271.089 109 271.498 109 271.934Z" fill="black"/>
<path d="M108 271.95C108 272.147 107.962 272.342 107.886 272.524C107.811 272.706 107.7 272.872 107.561 273.011C107.422 273.15 107.256 273.261 107.074 273.336C106.892 273.411 106.697 273.45 106.5 273.45C106.303 273.45 106.108 273.411 105.926 273.336C105.744 273.261 105.579 273.15 105.44 273.011C105.3 272.872 105.19 272.706 105.115 272.524C105.039 272.342 105 272.147 105 271.95C105 271.552 105.158 271.171 105.44 270.89C105.721 270.608 106.103 270.45 106.5 270.45C106.898 270.45 107.28 270.608 107.561 270.89C107.842 271.171 108 271.552 108 271.95ZM99.1504 272C99.1504 272.398 98.9924 272.78 98.7111 273.061C98.4297 273.342 98.0482 273.5 97.6504 273.5C97.2526 273.5 96.871 273.342 96.5897 273.061C96.3084 272.78 96.1504 272.398 96.1504 272C96.1504 271.602 96.3084 271.221 96.5897 270.94C96.871 270.658 97.2526 270.5 97.6504 270.5C98.0482 270.5 98.4297 270.658 98.7111 270.94C98.9924 271.221 99.1504 271.602 99.1504 272Z" fill="#4E3233"/>
<path d="M97.2575 270.773H97.269L97.2595 270.525L97.25 270.24C97.269 269.355 97.785 269.013 98.005 268.899C98.0203 268.894 98.0363 268.887 98.053 268.88C98.07 268.872 98.086 268.866 98.101 268.861C98.6046 268.634 99.0015 268.222 99.2095 267.71L99.286 267.529C99.3027 267.488 99.3302 267.452 99.3655 267.426C99.4009 267.399 99.4428 267.382 99.4869 267.377C99.5309 267.373 99.5754 267.38 99.6158 267.398C99.6561 267.416 99.6907 267.445 99.716 267.482C100.048 267.964 100.492 268.358 101.01 268.63C101.528 268.902 102.104 269.043 102.689 269.042H105.691C105.859 269.042 106.7 269.123 106.75 270.284L106.639 273.009C106.524 275.621 104.484 277.376 101.994 277.376C99.504 277.376 97.4635 275.621 97.3485 273.009L97.2575 270.773Z" fill="#573739"/>
<path d="M101.644 271.763L101.149 273.348C101.125 273.424 101.12 273.504 101.133 273.582C101.147 273.66 101.178 273.734 101.225 273.797C101.273 273.861 101.334 273.912 101.405 273.948C101.476 273.983 101.554 274.001 101.634 274H102.367C102.711 274 102.953 273.669 102.852 273.348L102.357 271.763C102.25 271.412 101.755 271.412 101.644 271.763" fill="#3D2123"/>
<path d="M102 274.698C101.551 274.701 101.108 274.596 100.708 274.392C100.581 274.327 100.443 274.471 100.524 274.587C100.686 274.83 100.905 275.029 101.163 275.167C101.42 275.304 101.708 275.376 102 275.375C102.292 275.376 102.58 275.304 102.837 275.167C103.095 275.029 103.314 274.83 103.476 274.587C103.556 274.466 103.419 274.327 103.291 274.392C102.892 274.596 102.449 274.701 102 274.698Z" fill="#290118"/>
<path d="M99.4998 270.7C99.9998 270.7 100.512 271.1 100.762 271.5C100.463 271.592 100.185 271.663 99.9133 271.733C99.5948 271.814 99.2858 271.893 98.9623 272L98.4623 271.65C98.2623 271.5 98.2123 271.25 98.5123 271.05C98.8123 270.8 99.1498 270.7 99.4998 270.7ZM104.6 270.7C104.1 270.7 103.587 271.1 103.337 271.5C103.637 271.592 103.915 271.663 104.186 271.733C104.504 271.814 104.814 271.893 105.137 272L105.637 271.65C105.837 271.5 105.887 271.25 105.587 271.05C105.287 270.8 104.95 270.7 104.6 270.7Z" fill="black"/>
<path d="M98.5073 271.683C98.5795 271.396 98.7473 271.143 98.983 270.964C99.2187 270.785 99.5082 270.691 99.8041 270.699C100.1 270.706 100.384 270.814 100.611 271.005C100.837 271.195 100.992 271.457 101.05 271.747C101.055 271.778 101.054 271.81 101.046 271.841C101.038 271.871 101.023 271.9 101.003 271.924C100.983 271.948 100.957 271.967 100.929 271.98C100.9 271.994 100.869 272 100.837 272H98.7588C98.7198 272 98.6812 271.992 98.646 271.975C98.6108 271.958 98.5798 271.934 98.5556 271.903C98.5313 271.873 98.5143 271.837 98.506 271.799C98.4976 271.761 98.498 271.721 98.5073 271.683ZM105.492 271.683C105.42 271.403 105.257 271.154 105.028 270.976C104.8 270.798 104.518 270.701 104.229 270.7C103.927 270.699 103.635 270.803 103.401 270.995C103.168 271.186 103.009 271.452 102.95 271.748C102.945 271.779 102.946 271.811 102.954 271.841C102.962 271.871 102.977 271.9 102.997 271.924C103.017 271.948 103.043 271.967 103.071 271.98C103.1 271.993 103.131 272 103.162 272H105.241C105.28 272 105.318 271.992 105.354 271.975C105.389 271.958 105.42 271.934 105.444 271.903C105.468 271.873 105.485 271.837 105.494 271.799C105.502 271.761 105.501 271.721 105.492 271.683Z" fill="white"/>
<path d="M99.1294 271.778C99.1294 271.66 99.1548 271.542 99.2039 271.434C99.253 271.326 99.3247 271.23 99.4141 271.152C99.5035 271.074 99.6085 271.016 99.7222 270.982C99.8359 270.947 99.9556 270.938 100.073 270.954C100.191 270.97 100.304 271.011 100.404 271.074C100.505 271.137 100.59 271.221 100.656 271.32C100.721 271.419 100.765 271.531 100.783 271.648C100.802 271.766 100.795 271.885 100.763 272H99.1589C99.1392 271.928 99.1296 271.853 99.1294 271.778ZM104.87 271.778C104.87 271.315 104.495 270.946 104.036 270.946C103.927 270.945 103.819 270.966 103.718 271.008C103.616 271.05 103.525 271.111 103.447 271.188C103.37 271.266 103.309 271.358 103.268 271.459C103.227 271.561 103.206 271.669 103.207 271.778C103.207 271.857 103.217 271.931 103.237 272H104.841C104.861 271.926 104.871 271.857 104.871 271.778" fill="#7D4533"/>
<path d="M99.9635 271.306C100.045 271.305 100.126 271.326 100.197 271.366C100.268 271.406 100.328 271.464 100.37 271.534C100.412 271.604 100.436 271.684 100.438 271.765C100.44 271.847 100.422 271.928 100.383 272H99.544C99.5059 271.928 99.4871 271.847 99.4895 271.765C99.4918 271.684 99.5153 271.604 99.5576 271.534C99.5999 271.464 99.6595 271.406 99.7307 271.366C99.8019 271.326 99.8823 271.305 99.964 271.306M104.031 271.306C103.95 271.305 103.869 271.326 103.798 271.366C103.727 271.406 103.667 271.464 103.625 271.534C103.583 271.604 103.559 271.684 103.557 271.765C103.555 271.847 103.573 271.928 103.611 272H104.451C104.489 271.928 104.508 271.847 104.506 271.765C104.503 271.684 104.48 271.604 104.437 271.534C104.395 271.464 104.335 271.406 104.264 271.366C104.193 271.326 104.113 271.305 104.031 271.306Z" fill="black"/>
<path d="M99.8248 271.46C99.8248 271.543 99.7588 271.61 99.6773 271.61C99.6379 271.61 99.6002 271.593 99.5725 271.565C99.5448 271.537 99.5293 271.499 99.5293 271.46C99.5293 271.377 99.5953 271.31 99.6773 271.31C99.7593 271.31 99.8253 271.377 99.8253 271.46M103.923 271.46C103.923 271.543 103.856 271.61 103.774 271.61C103.735 271.61 103.697 271.593 103.67 271.565C103.642 271.537 103.626 271.499 103.626 271.46C103.626 271.377 103.693 271.31 103.774 271.31C103.856 271.31 103.923 271.377 103.923 271.46Z" fill="white"/>
<path d="M98.8326 270.292L98.8286 270.295C98.7719 270.326 98.7054 270.334 98.6429 270.317C98.5804 270.301 98.5269 270.26 98.4936 270.205C98.4603 270.149 98.4499 270.083 98.4644 270.02C98.479 269.957 98.5174 269.902 98.5716 269.866L98.5721 269.866L98.5731 269.865L98.5761 269.863L98.5846 269.858C98.6295 269.832 98.6757 269.808 98.7231 269.787C98.8151 269.743 98.9456 269.687 99.1056 269.636C99.4221 269.535 99.8656 269.45 100.344 269.534C100.376 269.54 100.407 269.552 100.435 269.57C100.462 269.588 100.486 269.61 100.505 269.637C100.524 269.664 100.537 269.695 100.544 269.727C100.551 269.759 100.552 269.792 100.546 269.824C100.541 269.857 100.529 269.887 100.511 269.915C100.493 269.943 100.47 269.967 100.443 269.986C100.417 270.004 100.386 270.018 100.354 270.025C100.322 270.032 100.289 270.033 100.257 270.027C99.8851 269.961 99.5281 270.026 99.2576 270.112C99.1107 270.159 98.9684 270.22 98.8326 270.292ZM105.429 269.866L105.428 269.865L105.425 269.863L105.416 269.858L105.386 269.841C105.229 269.759 105.065 269.69 104.896 269.636C104.579 269.535 104.136 269.45 103.657 269.534C103.592 269.546 103.534 269.583 103.496 269.637C103.458 269.692 103.443 269.759 103.454 269.824C103.466 269.89 103.503 269.948 103.557 269.986C103.612 270.024 103.679 270.039 103.744 270.027C104.116 269.961 104.473 270.026 104.744 270.112C104.89 270.159 105.032 270.22 105.168 270.292L105.172 270.295C105.229 270.329 105.297 270.339 105.361 270.323C105.426 270.307 105.481 270.266 105.515 270.209C105.549 270.152 105.559 270.084 105.543 270.02C105.527 269.955 105.486 269.9 105.429 269.866Z" fill="black"/>
</g>
<g filter="url(#filter9_d_20823_269885)">
<rect x="146" y="32" width="26" height="27" rx="13" fill="url(#paint4_linear_20823_269885)"/>
</g>
<rect x="140" y="119" width="48.0674" height="48.0674" rx="12.8456" fill="white"/>
<path d="M154.021 132.517C154.021 131.467 154.872 130.616 155.921 130.616H172.078C173.128 130.616 173.979 131.467 173.979 132.517V138.177C173.979 139.226 173.128 140.077 172.078 140.077H155.921C154.872 140.077 154.021 139.226 154.021 138.177V132.517Z" fill="#09090B"/>
<path d="M167.07 142.453C167.997 142.453 168.577 143.47 168.113 144.284L162.192 154.674C161.712 155.516 160.499 155.479 160.071 154.608L158.975 152.383C158.898 152.228 158.856 152.059 158.849 151.886L158.746 149.199C158.73 148.797 158.52 148.429 158.184 148.214L155.939 146.78C155.795 146.688 155.671 146.566 155.577 146.421L154.222 144.347C153.693 143.536 154.267 142.453 155.227 142.453L167.07 142.453Z" fill="#09090B"/>
<rect x="205" y="74" width="83" height="14" rx="7" fill="white"/>
<rect x="205.462" y="74.4624" width="82.0752" height="13.0753" rx="6.53763" stroke="white" stroke-opacity="0.56" stroke-width="0.924748"/>
<path d="M211.558 83.5962C210.552 83.5962 209.745 83.0191 209.745 81.9464V78.3214H210.433V81.9168C210.433 82.5753 210.862 82.923 211.558 82.923C212.261 82.923 212.69 82.5753 212.69 81.9168V78.3214H213.37V81.9464C213.37 83.0191 212.564 83.5962 211.558 83.5962ZM214.837 80.8071C214.837 81.6431 216.953 81.0957 216.953 82.4939C216.953 83.1597 216.361 83.5962 215.54 83.5962C214.726 83.5962 214.134 83.1523 214.134 82.3903H214.77C214.77 82.8342 215.118 82.9969 215.54 82.9969C215.969 82.9969 216.309 82.8416 216.309 82.4939C216.309 81.6579 214.193 82.198 214.193 80.8071C214.193 80.1413 214.785 79.7048 215.54 79.7048C216.287 79.7048 216.879 80.1487 216.879 80.9107H216.242C216.242 80.4668 215.895 80.3041 215.54 80.3041C215.177 80.3041 214.837 80.4594 214.837 80.8071ZM219.062 79.7048C219.89 79.7048 220.504 80.2227 220.504 81.1105V83.5H219.868V83.1153C219.624 83.4408 219.239 83.5962 218.766 83.5962C218.092 83.5962 217.471 83.2041 217.471 82.4125C217.471 81.6209 218.092 81.2288 218.766 81.2288C219.239 81.2288 219.624 81.3842 219.868 81.6579V81.1326C219.868 80.5408 219.498 80.3189 219.062 80.3189C218.632 80.3189 218.263 80.5408 218.263 80.9847H217.626C217.626 80.2227 218.24 79.7048 219.062 79.7048ZM218.951 83.0487C219.491 83.0487 219.868 82.7824 219.868 82.4125C219.868 82.013 219.491 81.7689 218.951 81.7689C218.374 81.7689 218.115 82.0426 218.115 82.4125C218.115 82.7824 218.374 83.0487 218.951 83.0487ZM224.462 79.801H225.098V83.3446C225.098 84.4987 224.195 85.0758 223.226 85.0758C222.309 85.0758 221.436 84.4987 221.436 83.6554H222.08C222.08 84.0253 222.494 84.4765 223.226 84.4765C224.025 84.4765 224.462 84.0401 224.462 83.3446V82.8268C224.166 83.2707 223.685 83.5592 223.056 83.5592C222.028 83.5592 221.184 82.7084 221.184 81.6283C221.184 80.5556 222.028 79.7048 223.056 79.7048C223.685 79.7048 224.166 79.9934 224.462 80.4372V79.801ZM223.145 82.9452C223.892 82.9452 224.462 82.3755 224.462 81.6283C224.462 80.8885 223.892 80.3189 223.145 80.3189C222.398 80.3189 221.828 80.8885 221.828 81.6283C221.828 82.3755 222.398 82.9452 223.145 82.9452ZM226.517 81.9464C226.628 82.627 227.131 83.0117 227.79 83.0117C228.263 83.0117 228.633 82.775 228.788 82.4717H229.462C229.247 83.1449 228.603 83.5962 227.782 83.5962C226.621 83.5962 225.859 82.7602 225.859 81.6505C225.859 80.5556 226.621 79.7048 227.775 79.7048C228.892 79.7048 229.587 80.6222 229.587 81.6579C229.587 81.7541 229.58 81.8503 229.565 81.9464H226.517ZM226.517 81.3768H228.929C228.833 80.6518 228.322 80.3115 227.767 80.3115C227.079 80.3115 226.621 80.7406 226.517 81.3768ZM235.523 80.2671C236.1 80.5334 236.484 81.1178 236.484 81.8133C236.484 82.7454 235.789 83.5 234.849 83.5H232.341H232.208V78.3214H232.896H234.302C235.138 78.3214 235.708 78.8985 235.708 79.6309C235.708 79.8602 235.641 80.0821 235.523 80.2671ZM234.302 78.965H232.896V80.1117H234.842C234.953 79.9934 235.02 79.8232 235.02 79.6457C235.02 79.2684 234.761 78.965 234.302 78.965ZM234.753 82.8564C235.404 82.8564 235.796 82.3829 235.796 81.7985C235.796 81.2066 235.412 80.7406 234.761 80.7406H232.896V82.8564H234.753ZM238.59 79.7048C239.418 79.7048 240.032 80.2227 240.032 81.1105V83.5H239.396V83.1153C239.152 83.4408 238.767 83.5962 238.294 83.5962C237.62 83.5962 236.999 83.2041 236.999 82.4125C236.999 81.6209 237.62 81.2288 238.294 81.2288C238.767 81.2288 239.152 81.3842 239.396 81.6579V81.1326C239.396 80.5408 239.026 80.3189 238.59 80.3189C238.161 80.3189 237.791 80.5408 237.791 80.9847H237.154C237.154 80.2227 237.768 79.7048 238.59 79.7048ZM238.479 83.0487C239.019 83.0487 239.396 82.7824 239.396 82.4125C239.396 82.013 239.019 81.7689 238.479 81.7689C237.902 81.7689 237.643 82.0426 237.643 82.4125C237.643 82.7824 237.902 83.0487 238.479 83.0487ZM241.452 80.8071C241.452 81.6431 243.568 81.0957 243.568 82.4939C243.568 83.1597 242.976 83.5962 242.155 83.5962C241.341 83.5962 240.749 83.1523 240.749 82.3903H241.386C241.386 82.8342 241.733 82.9969 242.155 82.9969C242.584 82.9969 242.924 82.8416 242.924 82.4939C242.924 81.6579 240.809 82.198 240.809 80.8071C240.809 80.1413 241.4 79.7048 242.155 79.7048C242.902 79.7048 243.494 80.1487 243.494 80.9107H242.858C242.858 80.4668 242.51 80.3041 242.155 80.3041C241.793 80.3041 241.452 80.4594 241.452 80.8071ZM244.745 81.9464C244.856 82.627 245.359 83.0117 246.017 83.0117C246.491 83.0117 246.861 82.775 247.016 82.4717H247.689C247.475 83.1449 246.831 83.5962 246.01 83.5962C244.848 83.5962 244.086 82.7602 244.086 81.6505C244.086 80.5556 244.848 79.7048 246.002 79.7048C247.12 79.7048 247.815 80.6222 247.815 81.6579C247.815 81.7541 247.808 81.8503 247.793 81.9464H244.745ZM244.745 81.3768H247.157C247.06 80.6518 246.55 80.3115 245.995 80.3115C245.307 80.3115 244.848 80.7406 244.745 81.3768ZM251.583 78.3214H252.226V83.5H251.583V82.8712C251.287 83.3151 250.806 83.5962 250.184 83.5962C249.164 83.5962 248.313 82.7454 248.313 81.6505C248.313 80.5556 249.164 79.7048 250.184 79.7048C250.806 79.7048 251.287 79.986 251.583 80.4298V78.3214ZM250.266 82.9747C251.013 82.9747 251.583 82.4051 251.583 81.6505C251.583 80.8959 251.013 80.3263 250.266 80.3263C249.526 80.3263 248.956 80.8959 248.956 81.6505C248.956 82.4051 249.526 82.9747 250.266 82.9747ZM259.963 78.3214V83.5H259.283V79.4533L257.84 82.627H257.248L255.806 79.4533V83.5H255.117V78.3214H255.806H255.939L257.544 81.8429L259.142 78.3214H259.963ZM261.455 81.9464C261.566 82.627 262.069 83.0117 262.728 83.0117C263.201 83.0117 263.571 82.775 263.726 82.4717H264.4C264.185 83.1449 263.541 83.5962 262.72 83.5962C261.559 83.5962 260.797 82.7602 260.797 81.6505C260.797 80.5556 261.559 79.7048 262.713 79.7048C263.83 79.7048 264.525 80.6222 264.525 81.6579C264.525 81.7541 264.518 81.8503 264.503 81.9464H261.455ZM261.455 81.3768H263.867C263.771 80.6518 263.26 80.3115 262.706 80.3115C262.017 80.3115 261.559 80.7406 261.455 81.3768ZM266.948 79.801V80.4224H266.223V83.5H265.579V80.4224H264.847V79.801H265.579V78.6173H266.223V79.801H266.948ZM267.892 81.9464C268.003 82.627 268.506 83.0117 269.165 83.0117C269.638 83.0117 270.008 82.775 270.164 82.4717H270.837C270.622 83.1449 269.979 83.5962 269.157 83.5962C267.996 83.5962 267.234 82.7602 267.234 81.6505C267.234 80.5556 267.996 79.7048 269.15 79.7048C270.267 79.7048 270.963 80.6222 270.963 81.6579C270.963 81.7541 270.955 81.8503 270.94 81.9464H267.892ZM267.892 81.3768H270.304C270.208 80.6518 269.697 80.3115 269.143 80.3115C268.455 80.3115 267.996 80.7406 267.892 81.3768ZM272.311 80.3559C272.57 79.8972 272.977 79.7344 273.428 79.7344V80.4076C272.873 80.3854 272.311 80.6666 272.311 81.5173V83.5H271.667V79.801H272.311V80.3559ZM274.052 79.1352V78.3214H274.695V79.1352H274.052ZM274.052 83.5V79.801H274.695V83.5H274.052ZM277.416 79.7048C278.104 79.7048 278.659 80.2301 278.659 81.0957V83.5H278.015V81.1252C278.015 80.5926 277.689 80.3189 277.245 80.3189C276.787 80.3189 276.321 80.6 276.321 81.3916V83.5H275.677V79.801H276.321V80.2597C276.587 79.8528 276.972 79.7048 277.416 79.7048ZM282.62 79.801H283.256V83.3446C283.256 84.4987 282.353 85.0758 281.384 85.0758C280.467 85.0758 279.594 84.4987 279.594 83.6554H280.238C280.238 84.0253 280.652 84.4765 281.384 84.4765C282.183 84.4765 282.62 84.0401 282.62 83.3446V82.8268C282.324 83.2707 281.843 83.5592 281.214 83.5592C280.186 83.5592 279.342 82.7084 279.342 81.6283C279.342 80.5556 280.186 79.7048 281.214 79.7048C281.843 79.7048 282.324 79.9934 282.62 80.4372V79.801ZM281.303 82.9452C282.05 82.9452 282.62 82.3755 282.62 81.6283C282.62 80.8885 282.05 80.3189 281.303 80.3189C280.556 80.3189 279.986 80.8885 279.986 81.6283C279.986 82.3755 280.556 82.9452 281.303 82.9452Z" fill="#1A1A1A"/>
<rect x="276" y="171" width="52" height="14" rx="7" fill="white"/>
<rect x="276.462" y="171.462" width="51.0753" height="13.0753" rx="6.53763" stroke="white" stroke-opacity="0.56" stroke-width="0.924748"/>
<path d="M285.839 175.321V180.5H285.158V176.453L283.716 179.627H283.124L281.681 176.453V180.5H280.993V175.321H281.681H281.814L283.42 178.843L285.018 175.321H285.839ZM288.263 176.705C289.092 176.705 289.706 177.223 289.706 178.11V180.5H289.069V180.115C288.825 180.441 288.441 180.596 287.967 180.596C287.294 180.596 286.672 180.204 286.672 179.412C286.672 178.621 287.294 178.229 287.967 178.229C288.441 178.229 288.825 178.384 289.069 178.658V178.133C289.069 177.541 288.699 177.319 288.263 177.319C287.834 177.319 287.464 177.541 287.464 177.985H286.828C286.828 177.223 287.442 176.705 288.263 176.705ZM288.152 180.049C288.692 180.049 289.069 179.782 289.069 179.412C289.069 179.013 288.692 178.769 288.152 178.769C287.575 178.769 287.316 179.043 287.316 179.412C287.316 179.782 287.575 180.049 288.152 180.049ZM292.332 176.705C293.02 176.705 293.574 177.23 293.574 178.096V180.5H292.931V178.125C292.931 177.593 292.605 177.319 292.161 177.319C291.703 177.319 291.237 177.6 291.237 178.392V180.5H290.593V176.801H291.237V177.26C291.503 176.853 291.888 176.705 292.332 176.705ZM295.849 176.705C296.677 176.705 297.291 177.223 297.291 178.11V180.5H296.655V180.115C296.411 180.441 296.026 180.596 295.553 180.596C294.88 180.596 294.258 180.204 294.258 179.412C294.258 178.621 294.88 178.229 295.553 178.229C296.026 178.229 296.411 178.384 296.655 178.658V178.133C296.655 177.541 296.285 177.319 295.849 177.319C295.42 177.319 295.05 177.541 295.05 177.985H294.414C294.414 177.223 295.028 176.705 295.849 176.705ZM295.738 180.049C296.278 180.049 296.655 179.782 296.655 179.412C296.655 179.013 296.278 178.769 295.738 178.769C295.161 178.769 294.902 179.043 294.902 179.412C294.902 179.782 295.161 180.049 295.738 180.049ZM301.249 176.801H301.885V180.345C301.885 181.499 300.983 182.076 300.013 182.076C299.096 182.076 298.223 181.499 298.223 180.655H298.867C298.867 181.025 299.281 181.477 300.013 181.477C300.812 181.477 301.249 181.04 301.249 180.345V179.827C300.953 180.271 300.472 180.559 299.843 180.559C298.815 180.559 297.972 179.708 297.972 178.628C297.972 177.556 298.815 176.705 299.843 176.705C300.472 176.705 300.953 176.993 301.249 177.437V176.801ZM299.932 179.945C300.679 179.945 301.249 179.376 301.249 178.628C301.249 177.889 300.679 177.319 299.932 177.319C299.185 177.319 298.615 177.889 298.615 178.628C298.615 179.376 299.185 179.945 299.932 179.945ZM303.304 178.946C303.415 179.627 303.918 180.012 304.577 180.012C305.05 180.012 305.42 179.775 305.576 179.472H306.249C306.034 180.145 305.391 180.596 304.569 180.596C303.408 180.596 302.646 179.76 302.646 178.651C302.646 177.556 303.408 176.705 304.562 176.705C305.679 176.705 306.375 177.622 306.375 178.658C306.375 178.754 306.367 178.85 306.352 178.946H303.304ZM303.304 178.377H305.716C305.62 177.652 305.109 177.311 304.555 177.311C303.867 177.311 303.408 177.741 303.304 178.377ZM311.163 175.321C312.591 175.321 313.619 176.475 313.619 177.911C313.619 179.346 312.591 180.5 311.163 180.5H309.255H308.996V175.321H309.684H311.163ZM311.163 179.849C312.228 179.849 312.961 179.006 312.961 177.911C312.961 176.816 312.228 175.972 311.163 175.972H309.684V179.849H311.163ZM315.695 176.705C316.523 176.705 317.137 177.223 317.137 178.11V180.5H316.501V180.115C316.257 180.441 315.872 180.596 315.399 180.596C314.726 180.596 314.104 180.204 314.104 179.412C314.104 178.621 314.726 178.229 315.399 178.229C315.872 178.229 316.257 178.384 316.501 178.658V178.133C316.501 177.541 316.131 177.319 315.695 177.319C315.266 177.319 314.896 177.541 314.896 177.985H314.26C314.26 177.223 314.874 176.705 315.695 176.705ZM315.584 180.049C316.124 180.049 316.501 179.782 316.501 179.412C316.501 179.013 316.124 178.769 315.584 178.769C315.007 178.769 314.748 179.043 314.748 179.412C314.748 179.782 315.007 180.049 315.584 180.049ZM319.778 176.801V177.422H319.053V180.5H318.409V177.422H317.677V176.801H318.409V175.617H319.053V176.801H319.778ZM321.72 176.705C322.549 176.705 323.163 177.223 323.163 178.11V180.5H322.526V180.115C322.282 180.441 321.898 180.596 321.424 180.596C320.751 180.596 320.129 180.204 320.129 179.412C320.129 178.621 320.751 178.229 321.424 178.229C321.898 178.229 322.282 178.384 322.526 178.658V178.133C322.526 177.541 322.157 177.319 321.72 177.319C321.291 177.319 320.921 177.541 320.921 177.985H320.285C320.285 177.223 320.899 176.705 321.72 176.705ZM321.609 180.049C322.149 180.049 322.526 179.782 322.526 179.412C322.526 179.013 322.149 178.769 321.609 178.769C321.032 178.769 320.773 179.043 320.773 179.412C320.773 179.782 321.032 180.049 321.609 180.049Z" fill="#1A1A1A"/>
<rect x="73" y="213" width="82" height="14" rx="7" fill="white"/>
<rect x="73.4624" y="213.462" width="81.0752" height="13.0753" rx="6.53763" stroke="white" stroke-opacity="0.56" stroke-width="0.924748"/>
<path d="M79.3938 222.596C78.3876 222.596 77.5813 222.019 77.5813 220.946V217.321H78.2693V220.917C78.2693 221.575 78.6984 221.923 79.3938 221.923C80.0966 221.923 80.5257 221.575 80.5257 220.917V217.321H81.2063V220.946C81.2063 222.019 80.3999 222.596 79.3938 222.596ZM83.9148 218.705C84.6028 218.705 85.1577 219.23 85.1577 220.096V222.5H84.514V220.125C84.514 219.593 84.1885 219.319 83.7447 219.319C83.286 219.319 82.8199 219.6 82.8199 220.392V222.5H82.1763V218.801H82.8199V219.26C83.0862 218.853 83.4709 218.705 83.9148 218.705ZM86.0487 222.5V217.173H86.6923V222.5H86.0487ZM89.4127 222.596C88.3326 222.596 87.4671 221.745 87.4671 220.651C87.4671 219.556 88.3326 218.705 89.4127 218.705C90.4928 218.705 91.3658 219.556 91.3658 220.651C91.3658 221.745 90.4928 222.596 89.4127 222.596ZM89.4127 221.967C90.1525 221.967 90.7222 221.398 90.7222 220.651C90.7222 219.903 90.1525 219.334 89.4127 219.334C88.6803 219.334 88.1107 219.903 88.1107 220.651C88.1107 221.398 88.6803 221.967 89.4127 221.967ZM95.6608 221.257C95.4684 222.049 94.736 222.596 93.8631 222.596C92.746 222.596 91.9174 221.745 91.9174 220.651C91.9174 219.556 92.746 218.705 93.8631 218.705C94.736 218.705 95.461 219.252 95.6608 220.036H94.9802C94.81 219.615 94.3809 219.334 93.8631 219.334C93.1307 219.334 92.561 219.903 92.561 220.651C92.561 221.39 93.1307 221.96 93.8631 221.96C94.3809 221.96 94.8174 221.679 94.9802 221.257H95.6608ZM99.4655 222.5H98.6591L96.9946 220.754V222.5H96.3509V217.321H96.9946V220.443L98.5851 218.801H99.3915L97.6382 220.591L99.4655 222.5ZM104.94 217.972H102.668V219.785H104.851V220.436H102.668V222.5H101.98V217.321H102.668H104.94V217.972ZM105.598 222.5V217.173H106.242V222.5H105.598ZM107.675 220.946C107.786 221.627 108.289 222.012 108.948 222.012C109.421 222.012 109.791 221.775 109.946 221.472H110.62C110.405 222.145 109.761 222.596 108.94 222.596C107.779 222.596 107.017 221.76 107.017 220.651C107.017 219.556 107.779 218.705 108.933 218.705C110.05 218.705 110.745 219.622 110.745 220.658C110.745 220.754 110.738 220.85 110.723 220.946H107.675ZM107.675 220.377H110.087C109.991 219.652 109.48 219.311 108.925 219.311C108.237 219.311 107.779 219.741 107.675 220.377ZM114.124 222.5H113.428L112.541 221.124L111.653 222.5H110.957L112.193 220.584L111.039 218.801H111.734L112.541 220.044L113.34 218.801H114.035L112.888 220.584L114.124 222.5ZM114.738 218.135V217.321H115.381V218.135H114.738ZM114.738 222.5V218.801H115.381V222.5H114.738ZM118.405 218.705C119.433 218.705 120.277 219.556 120.277 220.651C120.277 221.745 119.433 222.596 118.405 222.596C117.783 222.596 117.303 222.315 117.007 221.871V222.5H116.363V217.321H117.007V219.43C117.303 218.986 117.783 218.705 118.405 218.705ZM118.324 221.975C119.063 221.975 119.633 221.405 119.633 220.651C119.633 219.896 119.063 219.326 118.324 219.326C117.576 219.326 117.007 219.896 117.007 220.651C117.007 221.405 117.576 221.975 118.324 221.975ZM121.045 222.5V217.173H121.688V222.5H121.045ZM123.121 220.946C123.232 221.627 123.735 222.012 124.394 222.012C124.867 222.012 125.237 221.775 125.393 221.472H126.066C125.851 222.145 125.208 222.596 124.386 222.596C123.225 222.596 122.463 221.76 122.463 220.651C122.463 219.556 123.225 218.705 124.379 218.705C125.496 218.705 126.192 219.622 126.192 220.658C126.192 220.754 126.184 220.85 126.169 220.946H123.121ZM123.121 220.377H125.533C125.437 219.652 124.927 219.311 124.372 219.311C123.684 219.311 123.225 219.741 123.121 220.377ZM130.692 217.321C131.587 217.321 132.312 218.039 132.312 218.927C132.312 219.815 131.587 220.54 130.692 220.54H129.501V222.5H128.813V217.321H129.501H130.692ZM130.692 219.896C131.21 219.896 131.624 219.459 131.624 218.927C131.624 218.394 131.21 217.965 130.692 217.965H129.501V219.896H130.692ZM133.623 219.356C133.882 218.897 134.289 218.734 134.74 218.734V219.408C134.185 219.385 133.623 219.667 133.623 220.517V222.5H132.98V218.801H133.623V219.356ZM135.364 218.135V217.321H136.007V218.135H135.364ZM135.364 222.5V218.801H136.007V222.5H135.364ZM140.525 221.257C140.333 222.049 139.601 222.596 138.728 222.596C137.611 222.596 136.782 221.745 136.782 220.651C136.782 219.556 137.611 218.705 138.728 218.705C139.601 218.705 140.326 219.252 140.525 220.036H139.845C139.675 219.615 139.246 219.334 138.728 219.334C137.995 219.334 137.426 219.903 137.426 220.651C137.426 221.39 137.995 221.96 138.728 221.96C139.246 221.96 139.682 221.679 139.845 221.257H140.525ZM141.216 218.135V217.321H141.859V218.135H141.216ZM141.216 222.5V218.801H141.859V222.5H141.216ZM144.58 218.705C145.268 218.705 145.823 219.23 145.823 220.096V222.5H145.179V220.125C145.179 219.593 144.853 219.319 144.41 219.319C143.951 219.319 143.485 219.6 143.485 220.392V222.5H142.841V218.801H143.485V219.26C143.751 218.853 144.136 218.705 144.58 218.705ZM149.784 218.801H150.42V222.345C150.42 223.499 149.517 224.076 148.548 224.076C147.631 224.076 146.758 223.499 146.758 222.655H147.402C147.402 223.025 147.816 223.477 148.548 223.477C149.347 223.477 149.784 223.04 149.784 222.345V221.827C149.488 222.271 149.007 222.559 148.378 222.559C147.35 222.559 146.506 221.708 146.506 220.628C146.506 219.556 147.35 218.705 148.378 218.705C149.007 218.705 149.488 218.993 149.784 219.437V218.801ZM148.467 221.945C149.214 221.945 149.784 221.376 149.784 220.628C149.784 219.889 149.214 219.319 148.467 219.319C147.72 219.319 147.15 219.889 147.15 220.628C147.15 221.376 147.72 221.945 148.467 221.945Z" fill="#1A1A1A"/>
<rect x="193" y="264" width="85" height="14" rx="7" fill="white"/>
<rect x="193.462" y="264.462" width="84.0752" height="13.0753" rx="6.53763" stroke="white" stroke-opacity="0.56" stroke-width="0.924748"/>
<path d="M200.48 273.596C198.897 273.596 197.773 272.398 197.773 270.911C197.773 269.416 198.897 268.225 200.48 268.225C201.649 268.225 202.648 268.972 202.936 270.023H202.204C201.96 269.35 201.272 268.891 200.48 268.891C199.267 268.891 198.453 269.771 198.453 270.911C198.453 272.043 199.267 272.923 200.48 272.923C201.272 272.923 201.96 272.472 202.204 271.798H202.936C202.648 272.849 201.649 273.596 200.48 273.596ZM205.857 269.801H206.5V273.5H205.857V273.041C205.59 273.448 205.213 273.596 204.762 273.596C204.074 273.596 203.519 273.071 203.519 272.198V269.801H204.162V272.176C204.162 272.708 204.488 272.982 204.932 272.982C205.391 272.982 205.857 272.701 205.857 271.902V269.801ZM208.013 270.807C208.013 271.643 210.129 271.096 210.129 272.494C210.129 273.16 209.537 273.596 208.715 273.596C207.902 273.596 207.31 273.152 207.31 272.39H207.946C207.946 272.834 208.294 272.997 208.715 272.997C209.145 272.997 209.485 272.842 209.485 272.494C209.485 271.658 207.369 272.198 207.369 270.807C207.369 270.141 207.961 269.705 208.715 269.705C209.463 269.705 210.055 270.149 210.055 270.911H209.418C209.418 270.467 209.071 270.304 208.715 270.304C208.353 270.304 208.013 270.459 208.013 270.807ZM212.607 269.801V270.422H211.882V273.5H211.239V270.422H210.506V269.801H211.239V268.617H211.882V269.801H212.607ZM214.839 273.596C213.759 273.596 212.894 272.745 212.894 271.651C212.894 270.556 213.759 269.705 214.839 269.705C215.919 269.705 216.792 270.556 216.792 271.651C216.792 272.745 215.919 273.596 214.839 273.596ZM214.839 272.967C215.579 272.967 216.149 272.398 216.149 271.651C216.149 270.903 215.579 270.334 214.839 270.334C214.107 270.334 213.537 270.903 213.537 271.651C213.537 272.398 214.107 272.967 214.839 272.967ZM221.184 269.705C221.827 269.705 222.345 270.156 222.345 271.007V273.5H221.701V271.029C221.701 270.519 221.398 270.319 221.058 270.319C220.725 270.319 220.274 270.526 220.274 271.244V273.5H219.63V271.029C219.63 270.519 219.327 270.319 218.979 270.319C218.646 270.319 218.195 270.526 218.195 271.244V273.5H217.551V269.801H218.195V270.208C218.446 269.838 218.794 269.705 219.156 269.705C219.549 269.705 219.911 269.905 220.111 270.289C220.385 269.86 220.762 269.705 221.184 269.705ZM223.681 271.946C223.792 272.627 224.295 273.012 224.953 273.012C225.427 273.012 225.797 272.775 225.952 272.472H226.625C226.411 273.145 225.767 273.596 224.946 273.596C223.784 273.596 223.022 272.76 223.022 271.651C223.022 270.556 223.784 269.705 224.939 269.705C226.056 269.705 226.751 270.622 226.751 271.658C226.751 271.754 226.744 271.85 226.729 271.946H223.681ZM223.681 271.377H226.093C225.996 270.652 225.486 270.311 224.931 270.311C224.243 270.311 223.784 270.741 223.681 271.377ZM228.1 270.356C228.359 269.897 228.765 269.734 229.217 269.734V270.408C228.662 270.385 228.1 270.667 228.1 271.517V273.5H227.456V269.801H228.1V270.356ZM236.602 268.321V273.5H235.921V269.453L234.479 272.627H233.887L232.444 269.453V273.5H231.756V268.321H232.444H232.577L234.183 271.843L235.781 268.321H236.602ZM239.026 269.705C239.855 269.705 240.469 270.223 240.469 271.11V273.5H239.832V273.115C239.588 273.441 239.204 273.596 238.73 273.596C238.057 273.596 237.436 273.204 237.436 272.412C237.436 271.621 238.057 271.229 238.73 271.229C239.204 271.229 239.588 271.384 239.832 271.658V271.133C239.832 270.541 239.463 270.319 239.026 270.319C238.597 270.319 238.227 270.541 238.227 270.985H237.591C237.591 270.223 238.205 269.705 239.026 269.705ZM238.915 273.049C239.455 273.049 239.832 272.782 239.832 272.412C239.832 272.013 239.455 271.769 238.915 271.769C238.338 271.769 238.079 272.043 238.079 272.412C238.079 272.782 238.338 273.049 238.915 273.049ZM243.095 269.705C243.783 269.705 244.338 270.23 244.338 271.096V273.5H243.694V271.125C243.694 270.593 243.368 270.319 242.925 270.319C242.466 270.319 242 270.6 242 271.392V273.5H241.356V269.801H242V270.26C242.266 269.853 242.651 269.705 243.095 269.705ZM246.612 269.705C247.441 269.705 248.055 270.223 248.055 271.11V273.5H247.418V273.115C247.174 273.441 246.789 273.596 246.316 273.596C245.643 273.596 245.021 273.204 245.021 272.412C245.021 271.621 245.643 271.229 246.316 271.229C246.789 271.229 247.174 271.384 247.418 271.658V271.133C247.418 270.541 247.048 270.319 246.612 270.319C246.183 270.319 245.813 270.541 245.813 270.985H245.177C245.177 270.223 245.791 269.705 246.612 269.705ZM246.501 273.049C247.041 273.049 247.418 272.782 247.418 272.412C247.418 272.013 247.041 271.769 246.501 271.769C245.924 271.769 245.665 272.043 245.665 272.412C245.665 272.782 245.924 273.049 246.501 273.049ZM252.012 269.801H252.648V273.345C252.648 274.499 251.746 275.076 250.777 275.076C249.859 275.076 248.986 274.499 248.986 273.655H249.63C249.63 274.025 250.044 274.477 250.777 274.477C251.576 274.477 252.012 274.04 252.012 273.345V272.827C251.716 273.271 251.235 273.559 250.607 273.559C249.578 273.559 248.735 272.708 248.735 271.628C248.735 270.556 249.578 269.705 250.607 269.705C251.235 269.705 251.716 269.993 252.012 270.437V269.801ZM250.695 272.945C251.442 272.945 252.012 272.376 252.012 271.628C252.012 270.889 251.442 270.319 250.695 270.319C249.948 270.319 249.378 270.889 249.378 271.628C249.378 272.376 249.948 272.945 250.695 272.945ZM254.068 271.946C254.179 272.627 254.682 273.012 255.34 273.012C255.813 273.012 256.183 272.775 256.339 272.472H257.012C256.797 273.145 256.154 273.596 255.333 273.596C254.171 273.596 253.409 272.76 253.409 271.651C253.409 270.556 254.171 269.705 255.325 269.705C256.442 269.705 257.138 270.622 257.138 271.658C257.138 271.754 257.13 271.85 257.116 271.946H254.068ZM254.068 271.377H256.479C256.383 270.652 255.873 270.311 255.318 270.311C254.63 270.311 254.171 270.741 254.068 271.377ZM261.475 269.705C262.119 269.705 262.637 270.156 262.637 271.007V273.5H261.993V271.029C261.993 270.519 261.69 270.319 261.349 270.319C261.016 270.319 260.565 270.526 260.565 271.244V273.5H259.921V271.029C259.921 270.519 259.618 270.319 259.27 270.319C258.938 270.319 258.486 270.526 258.486 271.244V273.5H257.843V269.801H258.486V270.208C258.738 269.838 259.086 269.705 259.448 269.705C259.84 269.705 260.203 269.905 260.402 270.289C260.676 269.86 261.053 269.705 261.475 269.705ZM263.972 271.946C264.083 272.627 264.586 273.012 265.245 273.012C265.718 273.012 266.088 272.775 266.244 272.472H266.917C266.702 273.145 266.059 273.596 265.238 273.596C264.076 273.596 263.314 272.76 263.314 271.651C263.314 270.556 264.076 269.705 265.23 269.705C266.347 269.705 267.043 270.622 267.043 271.658C267.043 271.754 267.035 271.85 267.02 271.946H263.972ZM263.972 271.377H266.384C266.288 270.652 265.778 270.311 265.223 270.311C264.535 270.311 264.076 270.741 263.972 271.377ZM269.486 269.705C270.174 269.705 270.729 270.23 270.729 271.096V273.5H270.085V271.125C270.085 270.593 269.76 270.319 269.316 270.319C268.857 270.319 268.391 270.6 268.391 271.392V273.5H267.748V269.801H268.391V270.26C268.658 269.853 269.042 269.705 269.486 269.705ZM273.373 269.801V270.422H272.648V273.5H272.005V270.422H271.272V269.801H272.005V268.617H272.648V269.801H273.373Z" fill="#1A1A1A"/>
<rect x="39" y="31" width="65" height="14" rx="7" fill="white"/>
<rect x="39.4624" y="31.4624" width="64.0752" height="13.0753" rx="6.53763" stroke="white" stroke-opacity="0.56" stroke-width="0.924748"/>
<path d="M46.4808 38.4582V37.8293H48.8333V38.4582V40.5H48.1675V39.7528C47.7828 40.3151 47.1022 40.5962 46.3402 40.5962C44.8162 40.5962 43.6991 39.3977 43.6991 37.9107C43.6991 36.4163 44.8236 35.2252 46.3772 35.2252C47.5461 35.2252 48.5448 35.9724 48.8333 36.986H48.1009C47.8568 36.3497 47.1688 35.8911 46.3772 35.8911C45.1935 35.8911 44.3798 36.7714 44.3798 37.9107C44.3798 39.0648 45.2083 39.9452 46.3772 39.9452C47.3167 39.9452 48.1083 39.4421 48.1527 38.5173H48.1675V38.4582H46.4808ZM50.2167 38.9464C50.3277 39.627 50.8307 40.0117 51.4892 40.0117C51.9626 40.0117 52.3325 39.775 52.4879 39.4717H53.1611C52.9466 40.1449 52.3029 40.5962 51.4818 40.5962C50.3203 40.5962 49.5583 39.7602 49.5583 38.6505C49.5583 37.5556 50.3203 36.7048 51.4744 36.7048C52.5915 36.7048 53.2869 37.6222 53.2869 38.6579C53.2869 38.7541 53.2795 38.8503 53.2647 38.9464H50.2167ZM50.2167 38.3768H52.6284C52.5323 37.6518 52.0218 37.3115 51.467 37.3115C50.7789 37.3115 50.3203 37.7406 50.2167 38.3768ZM55.7303 36.7048C56.4183 36.7048 56.9732 37.2301 56.9732 38.0957V40.5H56.3296V38.1252C56.3296 37.5926 56.0041 37.3189 55.5602 37.3189C55.1015 37.3189 54.6354 37.6 54.6354 38.3916V40.5H53.9918V36.801H54.6354V37.2597C54.9018 36.8528 55.2865 36.7048 55.7303 36.7048ZM58.3155 38.9464C58.4264 39.627 58.9295 40.0117 59.5879 40.0117C60.0614 40.0117 60.4313 39.775 60.5866 39.4717H61.2599C61.0453 40.1449 60.4017 40.5962 59.5805 40.5962C58.419 40.5962 57.657 39.7602 57.657 38.6505C57.657 37.5556 58.419 36.7048 59.5731 36.7048C60.6902 36.7048 61.3856 37.6222 61.3856 38.6579C61.3856 38.7541 61.3782 38.8503 61.3634 38.9464H58.3155ZM58.3155 38.3768H60.7272C60.631 37.6518 60.1206 37.3115 59.5657 37.3115C58.8777 37.3115 58.419 37.7406 58.3155 38.3768ZM62.7342 37.3559C62.9931 36.8972 63.4 36.7344 63.8513 36.7344V37.4076C63.2964 37.3854 62.7342 37.6666 62.7342 38.5173V40.5H62.0906V36.801H62.7342V37.3559ZM65.7786 36.7048C66.6072 36.7048 67.2212 37.2227 67.2212 38.1105V40.5H66.585V40.1153C66.3409 40.4408 65.9562 40.5962 65.4827 40.5962C64.8095 40.5962 64.1881 40.2041 64.1881 39.4125C64.1881 38.6209 64.8095 38.2288 65.4827 38.2288C65.9562 38.2288 66.3409 38.3842 66.585 38.6579V38.1326C66.585 37.5408 66.2151 37.3189 65.7786 37.3189C65.3496 37.3189 64.9797 37.5408 64.9797 37.9847H64.3434C64.3434 37.2227 64.9575 36.7048 65.7786 36.7048ZM65.6677 40.0487C66.2077 40.0487 66.585 39.7824 66.585 39.4125C66.585 39.013 66.2077 38.7689 65.6677 38.7689C65.0906 38.7689 64.8317 39.0426 64.8317 39.4125C64.8317 39.7824 65.0906 40.0487 65.6677 40.0487ZM69.862 36.801V37.4224H69.137V40.5H68.4934V37.4224H67.761V36.801H68.4934V35.6173H69.137V36.801H69.862ZM70.8068 38.9464C70.9178 39.627 71.4208 40.0117 72.0792 40.0117C72.5527 40.0117 72.9226 39.775 73.078 39.4717H73.7512C73.5366 40.1449 72.893 40.5962 72.0718 40.5962C70.9104 40.5962 70.1484 39.7602 70.1484 38.6505C70.1484 37.5556 70.9104 36.7048 72.0644 36.7048C73.1815 36.7048 73.8769 37.6222 73.8769 38.6579C73.8769 38.7541 73.8696 38.8503 73.8548 38.9464H70.8068ZM70.8068 38.3768H73.2185C73.1224 37.6518 72.6119 37.3115 72.057 37.3115C71.369 37.3115 70.9104 37.7406 70.8068 38.3768ZM76.498 35.3214H77.186V40.5H76.498V35.3214ZM79.9688 36.7048C80.6569 36.7048 81.2117 37.2301 81.2117 38.0957V40.5H80.5681V38.1252C80.5681 37.5926 80.2426 37.3189 79.7987 37.3189C79.34 37.3189 78.8739 37.6 78.8739 38.3916V40.5H78.2303V36.801H78.8739V37.2597C79.1403 36.8528 79.525 36.7048 79.9688 36.7048ZM84.3679 36.801H85.0559L83.6946 40.5H83.0806H82.9696L81.6158 36.801H82.2964L83.3321 39.7676L84.3679 36.801ZM87.2801 40.5962C86.2 40.5962 85.3345 39.7454 85.3345 38.6505C85.3345 37.5556 86.2 36.7048 87.2801 36.7048C88.3602 36.7048 89.2332 37.5556 89.2332 38.6505C89.2332 39.7454 88.3602 40.5962 87.2801 40.5962ZM87.2801 39.9673C88.0199 39.9673 88.5896 39.3977 88.5896 38.6505C88.5896 37.9033 88.0199 37.3337 87.2801 37.3337C86.5477 37.3337 85.9781 37.9033 85.9781 38.6505C85.9781 39.3977 86.5477 39.9673 87.2801 39.9673ZM89.992 36.1352V35.3214H90.6356V36.1352H89.992ZM89.992 40.5V36.801H90.6356V40.5H89.992ZM95.1537 39.2571C94.9614 40.0487 94.229 40.5962 93.356 40.5962C92.2389 40.5962 91.4103 39.7454 91.4103 38.6505C91.4103 37.5556 92.2389 36.7048 93.356 36.7048C94.229 36.7048 94.954 37.2523 95.1537 38.0365H94.4731C94.3029 37.6148 93.8739 37.3337 93.356 37.3337C92.6236 37.3337 92.054 37.9033 92.054 38.6505C92.054 39.3903 92.6236 39.9599 93.356 39.9599C93.8739 39.9599 94.3103 39.6788 94.4731 39.2571H95.1537ZM96.2951 38.9464C96.4061 39.627 96.9092 40.0117 97.5676 40.0117C98.0411 40.0117 98.411 39.775 98.5663 39.4717H99.2395C99.025 40.1449 98.3814 40.5962 97.5602 40.5962C96.3987 40.5962 95.6367 39.7602 95.6367 38.6505C95.6367 37.5556 96.3987 36.7048 97.5528 36.7048C98.6699 36.7048 99.3653 37.6222 99.3653 38.6579C99.3653 38.7541 99.3579 38.8503 99.3431 38.9464H96.2951ZM96.2951 38.3768H98.7069C98.6107 37.6518 98.1002 37.3115 97.5454 37.3115C96.8574 37.3115 96.3987 37.7406 96.2951 38.3768Z" fill="#1A1A1A"/>
<path d="M164.707 42.035C164.446 41.575 164.026 41.2264 163.526 41.055C163.001 40.875 162.551 40.53 162.265 40.055C162.073 39.7344 161.801 39.4688 161.476 39.284C161.151 39.0991 160.784 39.0013 160.411 39C160.109 39 159.822 39.065 159.56 39.175C159.204 39.33 158.804 39.33 158.448 39.175C158.177 39.0614 157.886 39.002 157.593 39C156.816 39 156.139 39.41 155.753 40.025C155.452 40.5064 154.998 40.8713 154.463 41.06C153.94 41.2439 153.507 41.6191 153.251 42.11C153.066 42.4668 152.98 42.867 153.004 43.2684C153.027 43.6697 153.159 44.0573 153.385 44.39C153.548 44.63 153.637 44.915 153.637 45.205V45.773C153.904 45.5845 153.662 46.1455 153.625 46.309V48.993C153.625 49.8255 154.121 50.567 154.875 50.875H163.125C163.879 50.567 164.375 49.825 164.375 48.993V46.559C164.309 46.3055 163.919 45.464 164.356 45.7685V45.205C164.356 44.915 164.445 44.63 164.608 44.39C164.845 44.0468 164.98 43.6435 164.998 43.2268C165.015 42.8101 164.915 42.3969 164.707 42.035Z" fill="#212121"/>
<path d="M156 47C156 47.197 155.961 47.392 155.886 47.574C155.81 47.756 155.7 47.9214 155.561 48.0607C155.421 48.1999 155.256 48.3104 155.074 48.3858C154.892 48.4612 154.697 48.5 154.5 48.5C154.303 48.5 154.108 48.4612 153.926 48.3858C153.744 48.3104 153.579 48.1999 153.439 48.0607C153.3 47.9214 153.19 47.756 153.114 47.574C153.039 47.392 153 47.197 153 47C153 46.6022 153.158 46.2206 153.439 45.9393C153.721 45.658 154.102 45.5 154.5 45.5C154.898 45.5 155.279 45.658 155.561 45.9393C155.842 46.2206 156 46.6022 156 47ZM165 47C165 47.197 164.961 47.392 164.886 47.574C164.81 47.756 164.7 47.9214 164.561 48.0607C164.421 48.1999 164.256 48.3104 164.074 48.3858C163.892 48.4612 163.697 48.5 163.5 48.5C163.303 48.5 163.108 48.4612 162.926 48.3858C162.744 48.3104 162.579 48.1999 162.439 48.0607C162.3 47.9214 162.19 47.756 162.114 47.574C162.039 47.392 162 47.197 162 47C162 46.6022 162.158 46.2206 162.439 45.9393C162.721 45.658 163.102 45.5 163.5 45.5C163.898 45.5 164.279 45.658 164.561 45.9393C164.842 46.2206 165 46.6022 165 47Z" fill="#F4C6AD"/>
<path d="M154.221 45.5206L155.002 49.3251C155.242 51.1451 156.291 52.5001 158.125 52.5001H159.883C161.717 52.5001 162.766 51.1451 163.006 49.3251L163.775 45.5276L163.75 45.5231L163.808 44.5651C163.798 43.8501 163.234 43.2601 162.523 43.2301H161.217C160.78 43.2292 160.353 43.1017 159.987 42.863C159.621 42.6243 159.332 42.2846 159.155 41.8851C159.109 41.7704 159.03 41.6719 158.928 41.6024C158.826 41.5329 158.705 41.4956 158.582 41.4951H157.395C155.675 41.4951 154.25 42.9051 154.25 44.6451V45.5161L154.221 45.5206Z" fill="#FFD7C2"/>
<path d="M163.75 45.5211V45.2841C163.75 45.2841 162.657 48.6066 162.15 49.4321L162.118 49.4821C162.017 49.6836 161.763 49.6836 161.611 49.5326L161.154 49.0296C161.061 48.9348 160.951 48.8593 160.829 48.8076C160.707 48.7558 160.576 48.7288 160.443 48.7281H157.651C157.397 48.7281 157.093 48.8281 156.941 49.0296L156.484 49.4826C156.331 49.6331 156.078 49.6331 155.976 49.4321C155.437 48.5546 154.28 45.1826 154.28 45.1826L154.272 46.3056L154.502 49.8251C154.618 50.704 155.049 51.5109 155.716 52.0952C156.382 52.6794 157.239 53.0011 158.125 53.0001H159.884C160.77 53.001 161.627 52.6793 162.293 52.095C162.96 51.5108 163.391 50.704 163.506 49.8251L163.751 45.9146V45.5211M157.252 50.8996V49.6836C157.252 49.4321 157.498 49.2311 157.752 49.2311H160.25C160.504 49.2311 160.75 49.4321 160.75 49.6836V50.8996C160.75 51.4026 160.443 51.8046 159.75 51.8046C159.649 51.8046 159.5 51.7046 159.5 51.6036V51.5031C159.5 51.2516 159.326 51.0001 159.022 51.0001C158.768 51.0001 158.5 51.2011 158.5 51.5031V51.6036C158.5 51.7041 158.352 51.8046 158.25 51.8046C157.5 51.8046 157.252 51.4026 157.252 50.8996Z" fill="#433D3D"/>
<path d="M158.644 46.7634L158.149 48.3484C158.125 48.424 158.12 48.5041 158.133 48.5821C158.147 48.6602 158.178 48.734 158.225 48.7975C158.273 48.861 158.334 48.9124 158.405 48.9476C158.476 48.9828 158.554 49.0007 158.634 48.9999H159.367C159.711 48.9999 159.953 48.6689 159.852 48.3479L159.357 46.7629C159.25 46.4124 158.755 46.4124 158.644 46.7629" fill="#E5AF93"/>
<path d="M159 49.9475C158.551 49.9505 158.108 49.8456 157.708 49.6415C157.581 49.5765 157.443 49.7205 157.524 49.8365C157.686 50.0798 157.905 50.2792 158.163 50.4168C158.42 50.5544 158.708 50.626 159 50.625C159.292 50.626 159.58 50.5544 159.837 50.4168C160.095 50.2792 160.314 50.0798 160.476 49.8365C160.556 49.716 160.419 49.5765 160.291 49.6415C159.892 49.8456 159.449 49.9505 159 49.9475Z" fill="#990838"/>
<path d="M155.507 46.6835C155.58 46.3965 155.747 46.1426 155.983 45.9636C156.219 45.7847 156.508 45.6912 156.804 45.6987C157.1 45.7061 157.384 45.814 157.611 46.0046C157.837 46.1952 157.992 46.4572 158.05 46.7475C158.055 46.7785 158.054 46.8104 158.046 46.8408C158.038 46.8713 158.023 46.8996 158.003 46.9238C157.983 46.9479 157.957 46.9672 157.929 46.9804C157.9 46.9936 157.869 47.0002 157.837 47H155.759C155.72 47.0004 155.681 46.9919 155.646 46.9751C155.611 46.9584 155.58 46.9338 155.556 46.9032C155.531 46.8727 155.514 46.837 155.506 46.7989C155.498 46.7609 155.498 46.7214 155.507 46.6835ZM162.492 46.6835C162.42 46.4029 162.257 46.1542 162.028 45.9762C161.8 45.7982 161.518 45.7011 161.229 45.7C160.927 45.6992 160.635 45.8034 160.401 45.9946C160.168 46.1858 160.009 46.4521 159.95 46.748C159.945 46.7789 159.946 46.8107 159.954 46.8411C159.962 46.8714 159.977 46.8997 159.997 46.9237C160.017 46.9478 160.043 46.9671 160.071 46.9803C160.1 46.9934 160.131 47.0002 160.162 47H162.241C162.28 47.0004 162.318 46.9919 162.354 46.9751C162.389 46.9584 162.42 46.9338 162.444 46.9032C162.468 46.8727 162.485 46.837 162.494 46.7989C162.502 46.7609 162.501 46.7214 162.492 46.6835Z" fill="white"/>
<path d="M156.129 46.7783C156.129 46.6596 156.155 46.5423 156.204 46.4342C156.253 46.3262 156.325 46.2299 156.414 46.1518C156.503 46.0737 156.609 46.0157 156.722 45.9815C156.836 45.9474 156.956 45.938 157.073 45.9539C157.191 45.9699 157.304 46.0108 157.404 46.074C157.505 46.1371 157.59 46.2211 157.656 46.3201C157.721 46.4192 157.765 46.5311 157.783 46.6483C157.802 46.7656 157.795 46.8854 157.763 46.9998H156.159C156.139 46.9276 156.13 46.8531 156.129 46.7783ZM161.87 46.7783C161.87 46.3153 161.495 45.9458 161.036 45.9458C160.927 45.9452 160.819 45.9664 160.718 46.008C160.616 46.0497 160.525 46.111 160.447 46.1885C160.37 46.266 160.309 46.358 160.268 46.4592C160.227 46.5605 160.206 46.669 160.207 46.7783C160.207 46.857 160.217 46.9308 160.237 46.9998H161.841C161.861 46.9258 161.871 46.8568 161.871 46.7783" fill="#7D4533"/>
<path d="M156.963 46.3057C157.045 46.3055 157.126 46.3264 157.197 46.3664C157.268 46.4064 157.328 46.4642 157.37 46.5341C157.412 46.604 157.436 46.6837 157.438 46.7654C157.44 46.847 157.422 46.9279 157.383 47.0002H156.544C156.506 46.9279 156.487 46.847 156.489 46.7654C156.492 46.6837 156.515 46.604 156.558 46.5341C156.6 46.4642 156.66 46.4064 156.731 46.3664C156.802 46.3264 156.882 46.3055 156.964 46.3057M161.031 46.3057C160.95 46.3055 160.869 46.3264 160.798 46.3664C160.727 46.4064 160.667 46.4642 160.625 46.5341C160.583 46.604 160.559 46.6837 160.557 46.7654C160.555 46.847 160.573 46.9279 160.611 47.0002H161.451C161.489 46.9279 161.508 46.847 161.506 46.7654C161.503 46.6837 161.48 46.604 161.437 46.5341C161.395 46.4642 161.335 46.4064 161.264 46.3664C161.193 46.3264 161.113 46.3055 161.031 46.3057Z" fill="black"/>
<path d="M156.825 46.4601C156.825 46.5431 156.759 46.6101 156.677 46.6101C156.638 46.6095 156.6 46.5935 156.573 46.5654C156.545 46.5373 156.529 46.4995 156.529 46.4601C156.529 46.3771 156.595 46.3101 156.677 46.3101C156.759 46.3101 156.825 46.3771 156.825 46.4601M160.923 46.4601C160.923 46.5431 160.856 46.6101 160.774 46.6101C160.735 46.6095 160.697 46.5935 160.67 46.5654C160.642 46.5373 160.626 46.4995 160.626 46.4601C160.626 46.3771 160.693 46.3101 160.774 46.3101C160.856 46.3101 160.923 46.3771 160.923 46.4601Z" fill="white"/>
<path d="M161.839 44.0865C162.126 44.1765 162.316 44.3275 162.48 44.47C162.532 44.5151 162.563 44.5789 162.568 44.6474C162.573 44.7158 162.55 44.7833 162.505 44.835C162.46 44.8868 162.396 44.9184 162.328 44.9231C162.259 44.9278 162.192 44.9051 162.14 44.86C161.993 44.732 161.868 44.6375 161.683 44.5795C161.494 44.52 161.22 44.4915 160.771 44.5465C160.738 44.5507 160.703 44.5481 160.671 44.5391C160.638 44.53 160.607 44.5145 160.581 44.4936C160.554 44.4727 160.531 44.4467 160.515 44.4171C160.498 44.3876 160.487 44.355 160.483 44.3213C160.479 44.2876 160.482 44.2534 160.491 44.2206C160.5 44.1879 160.515 44.1573 160.536 44.1305C160.557 44.1037 160.583 44.0814 160.613 44.0646C160.642 44.0479 160.675 44.0372 160.708 44.033C161.2 43.973 161.556 43.997 161.839 44.0865ZM156.178 44.1935C156.025 44.2535 155.904 44.318 155.82 44.3685L155.681 44.4605C155.627 44.5025 155.592 44.5643 155.583 44.6323C155.574 44.7004 155.593 44.7691 155.635 44.8233C155.677 44.8775 155.739 44.9129 155.807 44.9215C155.875 44.9302 155.944 44.9115 155.998 44.8695L156 44.8675L156.015 44.8565L156.085 44.8115C156.476 44.5846 156.93 44.4915 157.378 44.5465C157.446 44.555 157.515 44.536 157.569 44.4938C157.623 44.4516 157.658 44.3896 157.666 44.3215C157.675 44.2534 157.656 44.1848 157.614 44.1307C157.571 44.0766 157.509 44.0415 157.441 44.033C157.013 43.981 156.579 44.0361 156.178 44.1935Z" fill="#212121"/>
<defs>
<filter id="filter0_f_20823_269885" x="251" y="252" width="6" height="6" filterUnits="userSpaceOnUse" color-interpolation-filters="sRGB">
<feFlood flood-opacity="0" result="BackgroundImageFix"/>
<feBlend mode="normal" in="SourceGraphic" in2="BackgroundImageFix" result="shape"/>
<feGaussianBlur stdDeviation="0.5" result="effect1_foregroundBlur_20823_269885"/>
</filter>
<filter id="filter1_f_20823_269885" x="305" y="134" width="5" height="6" filterUnits="userSpaceOnUse" color-interpolation-filters="sRGB">
<feFlood flood-opacity="0" result="BackgroundImageFix"/>
<feBlend mode="normal" in="SourceGraphic" in2="BackgroundImageFix" result="shape"/>
<feGaussianBlur stdDeviation="0.5" result="effect1_foregroundBlur_20823_269885"/>
</filter>
<filter id="filter2_f_20823_269885" x="47" y="54" width="6" height="6" filterUnits="userSpaceOnUse" color-interpolation-filters="sRGB">
<feFlood flood-opacity="0" result="BackgroundImageFix"/>
<feBlend mode="normal" in="SourceGraphic" in2="BackgroundImageFix" result="shape"/>
<feGaussianBlur stdDeviation="0.5" result="effect1_foregroundBlur_20823_269885"/>
</filter>
<filter id="filter3_f_20823_269885" x="67" y="167" width="6" height="6" filterUnits="userSpaceOnUse" color-interpolation-filters="sRGB">
<feFlood flood-opacity="0" result="BackgroundImageFix"/>
<feBlend mode="normal" in="SourceGraphic" in2="BackgroundImageFix" result="shape"/>
<feGaussianBlur stdDeviation="0.5" result="effect1_foregroundBlur_20823_269885"/>
</filter>
<filter id="filter4_f_20823_269885" x="204" y="103" width="6" height="6" filterUnits="userSpaceOnUse" color-interpolation-filters="sRGB">
<feFlood flood-opacity="0" result="BackgroundImageFix"/>
<feBlend mode="normal" in="SourceGraphic" in2="BackgroundImageFix" result="shape"/>
<feGaussianBlur stdDeviation="0.5" result="effect1_foregroundBlur_20823_269885"/>
</filter>
<filter id="filter5_d_20823_269885" x="-49.2358" y="82.7642" width="138.472" height="138.472" filterUnits="userSpaceOnUse" color-interpolation-filters="sRGB">
<feFlood flood-opacity="0" result="BackgroundImageFix"/>
<feColorMatrix in="SourceAlpha" type="matrix" values="0 0 0 0 0 0 0 0 0 0 0 0 0 0 0 0 0 0 127 0" result="hardAlpha"/>
<feOffset dy="0.819013"/>
<feGaussianBlur stdDeviation="1.63803"/>
<feComposite in2="hardAlpha" operator="out"/>
<feColorMatrix type="matrix" values="0 0 0 0 0 0 0 0 0 0 0 0 0 0 0 0 0 0 0.16 0"/>
<feBlend mode="normal" in2="BackgroundImageFix" result="effect1_dropShadow_20823_269885"/>
<feBlend mode="normal" in="SourceGraphic" in2="effect1_dropShadow_20823_269885" result="shape"/>
</filter>
<filter id="filter6_d_20823_269885" x="139.764" y="118.764" width="133.472" height="133.472" filterUnits="userSpaceOnUse" color-interpolation-filters="sRGB">
<feFlood flood-opacity="0" result="BackgroundImageFix"/>
<feColorMatrix in="SourceAlpha" type="matrix" values="0 0 0 0 0 0 0 0 0 0 0 0 0 0 0 0 0 0 127 0" result="hardAlpha"/>
<feOffset dy="0.819013"/>
<feGaussianBlur stdDeviation="1.63803"/>
<feComposite in2="hardAlpha" operator="out"/>
<feColorMatrix type="matrix" values="0 0 0 0 0 0 0 0 0 0 0 0 0 0 0 0 0 0 0.16 0"/>
<feBlend mode="normal" in2="BackgroundImageFix" result="effect1_dropShadow_20823_269885"/>
<feBlend mode="normal" in="SourceGraphic" in2="effect1_dropShadow_20823_269885" result="shape"/>
</filter>
<filter id="filter7_d_20823_269885" x="47.7642" y="48.7642" width="133.472" height="133.472" filterUnits="userSpaceOnUse" color-interpolation-filters="sRGB">
<feFlood flood-opacity="0" result="BackgroundImageFix"/>
<feColorMatrix in="SourceAlpha" type="matrix" values="0 0 0 0 0 0 0 0 0 0 0 0 0 0 0 0 0 0 127 0" result="hardAlpha"/>
<feOffset dy="0.819013"/>
<feGaussianBlur stdDeviation="1.63803"/>
<feComposite in2="hardAlpha" operator="out"/>
<feColorMatrix type="matrix" values="0 0 0 0 0 0 0 0 0 0 0 0 0 0 0 0 0 0 0.16 0"/>
<feBlend mode="normal" in2="BackgroundImageFix" result="effect1_dropShadow_20823_269885"/>
<feBlend mode="normal" in="SourceGraphic" in2="effect1_dropShadow_20823_269885" result="shape"/>
</filter>
<filter id="filter8_d_20823_269885" x="34.7642" y="203.764" width="133.472" height="133.472" filterUnits="userSpaceOnUse" color-interpolation-filters="sRGB">
<feFlood flood-opacity="0" result="BackgroundImageFix"/>
<feColorMatrix in="SourceAlpha" type="matrix" values="0 0 0 0 0 0 0 0 0 0 0 0 0 0 0 0 0 0 127 0" result="hardAlpha"/>
<feOffset dy="0.819013"/>
<feGaussianBlur stdDeviation="1.63803"/>
<feComposite in2="hardAlpha" operator="out"/>
<feColorMatrix type="matrix" values="0 0 0 0 0 0 0 0 0 0 0 0 0 0 0 0 0 0 0.16 0"/>
<feBlend mode="normal" in2="BackgroundImageFix" result="effect1_dropShadow_20823_269885"/>
<feBlend mode="normal" in="SourceGraphic" in2="effect1_dropShadow_20823_269885" result="shape"/>
</filter>
<filter id="filter9_d_20823_269885" x="92.7642" y="-21.2358" width="132.472" height="133.472" filterUnits="userSpaceOnUse" color-interpolation-filters="sRGB">
<feFlood flood-opacity="0" result="BackgroundImageFix"/>
<feColorMatrix in="SourceAlpha" type="matrix" values="0 0 0 0 0 0 0 0 0 0 0 0 0 0 0 0 0 0 127 0" result="hardAlpha"/>
<feOffset dy="0.819013"/>
<feGaussianBlur stdDeviation="1.63803"/>
<feComposite in2="hardAlpha" operator="out"/>
<feColorMatrix type="matrix" values="0 0 0 0 0 0 0 0 0 0 0 0 0 0 0 0 0 0 0.16 0"/>
<feBlend mode="normal" in2="BackgroundImageFix" result="effect1_dropShadow_20823_269885"/>
<feBlend mode="normal" in="SourceGraphic" in2="effect1_dropShadow_20823_269885" result="shape"/>
</filter>
<linearGradient id="paint0_linear_20823_269885" x1="8.57143" y1="141.943" x2="33.5586" y2="146.776" gradientUnits="userSpaceOnUse">
<stop stop-color="white"/>
<stop offset="1" stop-color="#E0E8FA"/>
</linearGradient>
<linearGradient id="paint1_linear_20823_269885" x1="196.857" y1="177.014" x2="217.94" y2="181.092" gradientUnits="userSpaceOnUse">
<stop stop-color="white"/>
<stop offset="1" stop-color="#E0E8FA"/>
</linearGradient>
<linearGradient id="paint2_linear_20823_269885" x1="104.857" y1="107.014" x2="125.94" y2="111.092" gradientUnits="userSpaceOnUse">
<stop stop-color="white"/>
<stop offset="1" stop-color="#E0E8FA"/>
</linearGradient>
<linearGradient id="paint3_linear_20823_269885" x1="91.8571" y1="262.014" x2="112.94" y2="266.092" gradientUnits="userSpaceOnUse">
<stop stop-color="white"/>
<stop offset="1" stop-color="#E0E8FA"/>
</linearGradient>
<linearGradient id="paint4_linear_20823_269885" x1="149.714" y1="37.0143" x2="170.07" y2="40.8059" gradientUnits="userSpaceOnUse">
<stop stop-color="white"/>
<stop offset="1" stop-color="#E0E8FA"/>
</linearGradient>
</defs>
</svg>
