<svg width="16" height="16" viewBox="0 0 16 16" fill="none" xmlns="http://www.w3.org/2000/svg">
<path d="M10.6668 14V12.6667C10.6668 11.9594 10.3859 11.2811 9.88578 10.781C9.38568 10.281 8.70741 10 8.00016 10H4.00016C3.29292 10 2.61464 10.281 2.11454 10.781C1.61445 11.2811 1.3335 11.9594 1.3335 12.6667V14M14.6668 13.9999V12.6666C14.6664 12.0757 14.4697 11.5018 14.1077 11.0348C13.7457 10.5678 13.2389 10.2343 12.6668 10.0866M10.6668 2.08659C11.2404 2.23346 11.7489 2.56706 12.1119 3.0348C12.475 3.50254 12.6721 4.07781 12.6721 4.66992C12.6721 5.26204 12.475 5.83731 12.1119 6.30505C11.7489 6.77279 11.2404 7.10639 10.6668 7.25326M8.66683 4.66667C8.66683 6.13943 7.47292 7.33333 6.00016 7.33333C4.5274 7.33333 3.3335 6.13943 3.3335 4.66667C3.3335 3.19391 4.5274 2 6.00016 2C7.47292 2 8.66683 3.19391 8.66683 4.66667Z" stroke="#3F3F46" stroke-width="1.5" stroke-linecap="round" stroke-linejoin="round"/>
</svg>
