<svg width="49" height="50" viewBox="0 0 49 50" fill="none" xmlns="http://www.w3.org/2000/svg">
    <g id="Frame 2610659">
        <path id="Vector"
              d="M46.722 12.5002H20.3331C19.9648 12.5002 19.6115 12.6465 19.351 12.907C19.0906 13.1675 18.9442 13.5207 18.9442 13.8891C18.9442 14.2575 19.0906 14.6107 19.351 14.8712C19.6115 15.1317 19.9648 15.278 20.3331 15.278H46.722C47.0904 15.278 47.4436 15.1317 47.7041 14.8712C47.9646 14.6107 48.1109 14.2575 48.1109 13.8891C48.1109 13.5207 47.9646 13.1675 47.7041 12.907C47.4436 12.6465 47.0904 12.5002 46.722 12.5002ZM20.3331 20.8335H30.7498C31.1181 20.8335 31.4714 20.6872 31.7319 20.4268C31.9923 20.1663 32.1387 19.813 32.1387 19.4447C32.1387 19.0763 31.9923 18.723 31.7319 18.4626C31.4714 18.2021 31.1181 18.0558 30.7498 18.0558H20.3331C19.9648 18.0558 19.6115 18.2021 19.351 18.4626C19.0906 18.723 18.9442 19.0763 18.9442 19.4447C18.9442 19.813 19.0906 20.1663 19.351 20.4268C19.6115 20.6872 19.9648 20.8335 20.3331 20.8335ZM39.7776 18.0558H36.3053C35.937 18.0558 35.5837 18.2021 35.3232 18.4626C35.0628 18.723 34.9164 19.0763 34.9164 19.4447C34.9164 19.813 35.0628 20.1663 35.3232 20.4268C35.5837 20.6872 35.937 20.8335 36.3053 20.8335H39.7776C40.1459 20.8335 40.4992 20.6872 40.7597 20.4268C41.0201 20.1663 41.1664 19.813 41.1664 19.4447C41.1664 19.0763 41.0201 18.723 40.7597 18.4626C40.4992 18.2021 40.1459 18.0558 39.7776 18.0558ZM36.9998 27.778C36.9998 28.1464 37.1461 28.4996 37.4066 28.7601C37.667 29.0206 38.0203 29.1669 38.3887 29.1669H41.8609C42.2292 29.1669 42.5825 29.0206 42.843 28.7601C43.1035 28.4996 43.2498 28.1464 43.2498 27.778C43.2498 27.4096 43.1035 27.0564 42.843 26.7959C42.5825 26.5354 42.2292 26.3891 41.8609 26.3891H38.3887C38.0203 26.3891 37.667 26.5354 37.4066 26.7959C37.1461 27.0564 36.9998 27.4096 36.9998 27.778ZM2.27756 22.2224C2.64592 22.2224 2.99919 22.0761 3.25965 21.8156C3.52012 21.5552 3.66645 21.2019 3.66645 20.8335V13.8891H11.9998C12.3681 13.8891 12.7214 13.7428 12.9819 13.4823C13.2423 13.2218 13.3887 12.8686 13.3887 12.5002C13.3887 12.1319 13.2423 11.7786 12.9819 11.5181C12.7214 11.2577 12.3681 11.1113 11.9998 11.1113H2.27756C1.9092 11.1113 1.55594 11.2577 1.29547 11.5181C1.035 11.7786 0.888672 12.1319 0.888672 12.5002V20.8335C0.888672 21.2019 1.035 21.5552 1.29547 21.8156C1.55594 22.0761 1.9092 22.2224 2.27756 22.2224ZM20.3331 29.1669H32.8331C33.2015 29.1669 33.5547 29.0206 33.8152 28.7601C34.0757 28.4996 34.222 28.1464 34.222 27.778C34.222 27.4096 34.0757 27.0564 33.8152 26.7959C33.5547 26.5354 33.2015 26.3891 32.8331 26.3891H20.3331C19.9648 26.3891 19.6115 26.5354 19.351 26.7959C19.0906 27.0564 18.9442 27.4096 18.9442 27.778C18.9442 28.1464 19.0906 28.4996 19.351 28.7601C19.6115 29.0206 19.9648 29.1669 20.3331 29.1669ZM20.3331 34.7224H46.0276C46.3959 34.7224 46.7492 34.5761 47.0097 34.3156C47.2701 34.0552 47.4164 33.7019 47.4164 33.3335C47.4164 32.9652 47.2701 32.6119 47.0097 32.3515C46.7492 32.091 46.3959 31.9447 46.0276 31.9447H20.3331C19.9648 31.9447 19.6115 32.091 19.351 32.3515C19.0906 32.6119 18.9442 32.9652 18.9442 33.3335C18.9442 33.7019 19.0906 34.0552 19.351 34.3156C19.6115 34.5761 19.9648 34.7224 20.3331 34.7224ZM2.27756 36.1113C2.64592 36.1113 2.99919 35.965 3.25965 35.7045C3.52012 35.4441 3.66645 35.0908 3.66645 34.7224V27.778H11.9998C12.3681 27.778 12.7214 27.6317 12.9819 27.3712C13.2423 27.1107 13.3887 26.7575 13.3887 26.3891C13.3887 26.0207 13.2423 25.6675 12.9819 25.407C12.7214 25.1465 12.3681 25.0002 11.9998 25.0002H2.27756C1.9092 25.0002 1.55594 25.1465 1.29547 25.407C1.035 25.6675 0.888672 26.0207 0.888672 26.3891V34.7224C0.888672 35.0908 1.035 35.4441 1.29547 35.7045C1.55594 35.965 1.9092 36.1113 2.27756 36.1113ZM46.722 40.278H20.3331C19.9648 40.278 19.6115 40.4243 19.351 40.6848C19.0906 40.9453 18.9442 41.2985 18.9442 41.6669C18.9442 42.0352 19.0906 42.3885 19.351 42.649C19.6115 42.9094 19.9648 43.0558 20.3331 43.0558H46.722C47.0904 43.0558 47.4436 42.9094 47.7041 42.649C47.9646 42.3885 48.1109 42.0352 48.1109 41.6669C48.1109 41.2985 47.9646 40.9453 47.7041 40.6848C47.4436 40.4243 47.0904 40.278 46.722 40.278ZM39.7776 45.8335H20.3331C19.9648 45.8335 19.6115 45.9799 19.351 46.2403C19.0906 46.5008 18.9442 46.8541 18.9442 47.2224C18.9442 47.5908 19.0906 47.9441 19.351 48.2045C19.6115 48.465 19.9648 48.6113 20.3331 48.6113H39.7776C40.1459 48.6113 40.4992 48.465 40.7597 48.2045C41.0201 47.9441 41.1664 47.5908 41.1664 47.2224C41.1664 46.8541 41.0201 46.5008 40.7597 46.2403C40.4992 45.9799 40.1459 45.8335 39.7776 45.8335ZM13.3887 40.278C13.3887 39.9096 13.2423 39.5564 12.9819 39.2959C12.7214 39.0354 12.3681 38.8891 11.9998 38.8891H2.27756C1.9092 38.8891 1.55594 39.0354 1.29547 39.2959C1.035 39.5564 0.888672 39.9096 0.888672 40.278V48.6113C0.888672 48.9797 1.035 49.333 1.29547 49.5934C1.55594 49.8539 1.9092 50.0002 2.27756 50.0002C2.64592 50.0002 2.99919 49.8539 3.25965 49.5934C3.52012 49.333 3.66645 48.9797 3.66645 48.6113V41.6669H11.9998C12.3681 41.6669 12.7214 41.5206 12.9819 41.2601C13.2423 40.9996 13.3887 40.6463 13.3887 40.278Z"
              fill="#616161"/>
        <path id="Vector_2"
              d="M13.7955 13.6013L9.22187 18.1749L7.42603 16.3791C7.16409 16.1261 6.81325 15.9861 6.44909 15.9893C6.08493 15.9924 5.73657 16.1385 5.47906 16.396C5.22155 16.6535 5.07548 17.0019 5.07232 17.366C5.06915 17.7302 5.20915 18.081 5.46214 18.343L8.23992 21.1207C8.50038 21.3811 8.85358 21.5274 9.22187 21.5274C9.59015 21.5274 9.94336 21.3811 10.2038 21.1207L15.7594 15.5652C16.0124 15.3032 16.1524 14.9524 16.1492 14.5882C16.146 14.2241 16 13.8757 15.7424 13.6182C15.4849 13.3607 15.1366 13.2146 14.7724 13.2115C14.4083 13.2083 14.0574 13.3483 13.7955 13.6013ZM13.7955 27.4902L9.22187 32.0638L7.42603 30.268C7.16409 30.015 6.81325 29.875 6.44909 29.8781C6.08493 29.8813 5.73657 30.0274 5.47906 30.2849C5.22155 30.5424 5.07548 30.8908 5.07232 31.2549C5.06915 31.6191 5.20915 31.9699 5.46214 32.2319L8.23992 35.0096C8.50038 35.27 8.85358 35.4163 9.22187 35.4163C9.59015 35.4163 9.94336 35.27 10.2038 35.0096L15.7594 29.4541C16.0124 29.1921 16.1524 28.8413 16.1492 28.4771C16.146 28.113 16 27.7646 15.7424 27.5071C15.4849 27.2496 15.1366 27.1035 14.7724 27.1004C14.4083 27.0972 14.0574 27.2372 13.7955 27.4902ZM13.7955 41.3791L9.22187 45.9527L7.42603 44.1569C7.16409 43.9039 6.81325 43.7639 6.44909 43.767C6.08493 43.7702 5.73657 43.9163 5.47906 44.1738C5.22155 44.4313 5.07548 44.7796 5.07232 45.1438C5.06915 45.508 5.20915 45.8588 5.46214 46.1208L8.23992 48.8985C8.50038 49.1589 8.85358 49.3052 9.22187 49.3052C9.59015 49.3052 9.94336 49.1589 10.2038 48.8985L15.7594 43.343C16.0124 43.081 16.1524 42.7302 16.1492 42.366C16.146 42.0019 16 41.6535 15.7424 41.396C15.4849 41.1385 15.1366 40.9924 14.7724 40.9893C14.4083 40.9861 14.0574 41.1261 13.7955 41.3791Z"
              fill="#616161"/>
    </g>
</svg>
