<svg width="16" height="13" viewBox="0 0 16 13" fill="none" xmlns="http://www.w3.org/2000/svg">
<path d="M8.00016 1V9M8.00016 9L5.3335 6.33333M8.00016 9L10.6668 6.33333M5.3335 2.33333H2.66683C2.31321 2.33333 1.97407 2.47381 1.72402 2.72386C1.47397 2.97391 1.3335 3.31304 1.3335 3.66667V10.3333C1.3335 10.687 1.47397 11.0261 1.72402 11.2761C1.97407 11.5262 2.31321 11.6667 2.66683 11.6667H13.3335C13.6871 11.6667 14.0263 11.5262 14.2763 11.2761C14.5264 11.0261 14.6668 10.687 14.6668 10.3333V3.66667C14.6668 3.31304 14.5264 2.97391 14.2763 2.72386C14.0263 2.47381 13.6871 2.33333 13.3335 2.33333H10.6668" stroke="#3F3F46" stroke-width="1.5" stroke-linecap="round" stroke-linejoin="round"/>
</svg>
