<svg width="65" height="64" viewBox="0 0 65 64" fill="none" xmlns="http://www.w3.org/2000/svg">
    <g id="marketing-plan">
        <g id="Group">
            <path id="Vector"
                  d="M56.5 5.00019C54.9665 4.94611 53.4741 5.50191 52.3495 6.54588C51.2249 7.58985 50.5599 9.03691 50.5 10.5702V15.0002H3.5C3.23478 15.0002 2.98043 15.1055 2.79289 15.2931C2.60536 15.4806 2.5 15.735 2.5 16.0002V51.0002C2.5 51.2654 2.60536 51.5198 2.79289 51.7073C2.98043 51.8948 3.23478 52.0002 3.5 52.0002H57.5C58.8256 51.9986 60.0964 51.4713 61.0338 50.534C61.9711 49.5966 62.4984 48.3258 62.5 47.0002V10.5702C62.4401 9.03691 61.7751 7.58985 60.6505 6.54588C59.5259 5.50191 58.0335 4.94611 56.5 5.00019ZM60.5 47.0002C60.5 47.7958 60.1839 48.5589 59.6213 49.1215C59.0587 49.6841 58.2957 50.0002 57.5 50.0002H4.5V17.0002H50.5V21.0002C50.5 21.2654 50.6054 21.5198 50.7929 21.7073C50.9804 21.8948 51.2348 22.0002 51.5 22.0002C51.7652 22.0002 52.0196 21.8948 52.2071 21.7073C52.3946 21.5198 52.5 21.2654 52.5 21.0002V10.5702C52.6122 9.58791 53.0819 8.68125 53.8196 8.02302C54.5572 7.36479 55.5113 7.001 56.5 7.001C57.4887 7.001 58.4428 7.36479 59.1804 8.02302C59.9181 8.68125 60.3878 9.58791 60.5 10.5702V41.8522C60.483 41.8372 60.462 41.8272 60.444 41.8132C60.2093 41.6237 59.9606 41.4522 59.7 41.3002C58.5839 40.6557 57.2989 40.3639 56.0139 40.4632C54.7289 40.5624 53.504 41.048 52.5 41.8562V29.0002C52.5 28.735 52.3946 28.4806 52.2071 28.2931C52.0196 28.1055 51.7652 28.0002 51.5 28.0002C51.2348 28.0002 50.9804 28.1055 50.7929 28.2931C50.6054 28.4806 50.5 28.735 50.5 29.0002V46.0002C50.5 46.2654 50.6054 46.5198 50.7929 46.7073C50.9804 46.8948 51.2348 47.0002 51.5 47.0002C51.7652 47.0002 52.0196 46.8948 52.2071 46.7073C52.3946 46.5198 52.5 46.2654 52.5 46.0002C52.6122 45.0179 53.0819 44.1113 53.8196 43.453C54.5572 42.7948 55.5113 42.431 56.5 42.431C57.4887 42.431 58.4428 42.7948 59.1804 43.453C59.9181 44.1113 60.3878 45.0179 60.5 46.0002V47.0002Z"
                  fill="#616161"/>
            <path id="Vector_2"
                  d="M45.5 38.1423V33.0003C45.5 32.4699 45.2893 31.9612 44.9142 31.5861C44.5392 31.2111 44.0304 31.0003 43.5 31.0003H28.5V26.8583C29.4427 26.6149 30.2642 26.0361 30.8106 25.2303C31.357 24.4245 31.5908 23.4471 31.4681 22.4813C31.3455 21.5155 30.8747 20.6276 30.1442 19.984C29.4137 19.3404 28.4736 18.9854 27.5 18.9854C26.5264 18.9854 25.5863 19.3404 24.8558 19.984C24.1253 20.6276 23.6546 21.5155 23.5319 22.4813C23.4092 23.4471 23.643 24.4245 24.1894 25.2303C24.7358 26.0361 25.5574 26.6149 26.5 26.8583V31.0003H11.5C10.9696 31.0003 10.4609 31.2111 10.0858 31.5861C9.71072 31.9612 9.50001 32.4699 9.50001 33.0003V38.1423C8.55735 38.3857 7.73582 38.9646 7.18941 39.7703C6.643 40.5761 6.40922 41.5535 6.53189 42.5193C6.65457 43.4852 7.12527 44.3731 7.85578 45.0167C8.58628 45.6602 9.52644 46.0153 10.5 46.0153C11.4736 46.0153 12.4137 45.6602 13.1442 45.0167C13.8747 44.3731 14.3455 43.4852 14.4681 42.5193C14.5908 41.5535 14.357 40.5761 13.8106 39.7703C13.2642 38.9646 12.4427 38.3857 11.5 38.1423V33.0003H26.5V38.1423C25.5574 38.3857 24.7358 38.9646 24.1894 39.7703C23.643 40.5761 23.4092 41.5535 23.5319 42.5193C23.6546 43.4852 24.1253 44.3731 24.8558 45.0167C25.5863 45.6602 26.5264 46.0153 27.5 46.0153C28.4736 46.0153 29.4137 45.6602 30.1442 45.0167C30.8747 44.3731 31.3455 43.4852 31.4681 42.5193C31.5908 41.5535 31.357 40.5761 30.8106 39.7703C30.2642 38.9646 29.4427 38.3857 28.5 38.1423V33.0003H43.5V38.1423C42.5574 38.3857 41.7358 38.9646 41.1894 39.7703C40.643 40.5761 40.4092 41.5535 40.5319 42.5193C40.6546 43.4852 41.1253 44.3731 41.8558 45.0167C42.5863 45.6602 43.5264 46.0153 44.5 46.0153C45.4736 46.0153 46.4137 45.6602 47.1442 45.0167C47.8748 44.3731 48.3455 43.4852 48.4681 42.5193C48.5908 41.5535 48.357 40.5761 47.8106 39.7703C47.2642 38.9646 46.4427 38.3857 45.5 38.1423ZM25.5 23.0003C25.5 22.6048 25.6173 22.2181 25.8371 21.8892C26.0568 21.5603 26.3692 21.304 26.7346 21.1526C27.1001 21.0012 27.5022 20.9616 27.8902 21.0388C28.2782 21.1159 28.6345 21.3064 28.9142 21.5861C29.1939 21.8658 29.3844 22.2222 29.4616 22.6102C29.5388 22.9981 29.4991 23.4003 29.3478 23.7657C29.1964 24.1312 28.94 24.4435 28.6112 24.6633C28.2823 24.883 27.8956 25.0003 27.5 25.0003C26.9696 25.0003 26.4609 24.7896 26.0858 24.4145C25.7107 24.0395 25.5 23.5308 25.5 23.0003ZM12.5 42.0003C12.5 42.3959 12.3827 42.7826 12.1629 43.1115C11.9432 43.4404 11.6308 43.6967 11.2654 43.8481C10.8999 43.9995 10.4978 44.0391 10.1098 43.9619C9.72187 43.8847 9.3655 43.6943 9.0858 43.4146C8.80609 43.1348 8.61561 42.7785 8.53844 42.3905C8.46127 42.0026 8.50087 41.6004 8.65225 41.235C8.80363 40.8695 9.05997 40.5572 9.38887 40.3374C9.71777 40.1176 10.1044 40.0003 10.5 40.0003C11.0304 40.0003 11.5391 40.211 11.9142 40.5861C12.2893 40.9612 12.5 41.4699 12.5 42.0003ZM29.5 42.0003C29.5 42.3959 29.3827 42.7826 29.1629 43.1115C28.9432 43.4404 28.6308 43.6967 28.2654 43.8481C27.8999 43.9995 27.4978 44.0391 27.1098 43.9619C26.7219 43.8847 26.3655 43.6943 26.0858 43.4146C25.8061 43.1348 25.6156 42.7785 25.5384 42.3905C25.4613 42.0026 25.5009 41.6004 25.6523 41.235C25.8036 40.8695 26.06 40.5572 26.3889 40.3374C26.7178 40.1176 27.1044 40.0003 27.5 40.0003C28.0304 40.0003 28.5392 40.211 28.9142 40.5861C29.2893 40.9612 29.5 41.4699 29.5 42.0003ZM44.5 44.0003C44.1045 44.0003 43.7178 43.883 43.3889 43.6633C43.06 43.4435 42.8036 43.1312 42.6523 42.7657C42.5009 42.4002 42.4613 41.9981 42.5384 41.6102C42.6156 41.2222 42.8061 40.8658 43.0858 40.5861C43.3655 40.3064 43.7219 40.1159 44.1098 40.0388C44.4978 39.9616 44.8999 40.0012 45.2654 40.1526C45.6308 40.304 45.9432 40.5603 46.163 40.8892C46.3827 41.2181 46.5 41.6048 46.5 42.0003C46.5 42.5308 46.2893 43.0395 45.9142 43.4146C45.5392 43.7896 45.0304 44.0003 44.5 44.0003Z"
                  fill="#616161"/>
            <path id="Vector_3"
                  d="M51.5 26C52.0523 26 52.5 25.5523 52.5 25C52.5 24.4477 52.0523 24 51.5 24C50.9477 24 50.5 24.4477 50.5 25C50.5 25.5523 50.9477 26 51.5 26Z"
                  fill="#616161"/>
        </g>
    </g>
</svg>
