<svg width="51" height="50" viewBox="0 0 51 50" fill="none" xmlns="http://www.w3.org/2000/svg">
    <g id="price-tag">
        <path id="Vector"
              d="M38.8439 17.0939L32.6981 8.76058C32.6021 8.62929 32.4768 8.52228 32.3321 8.44812C32.1874 8.37396 32.0273 8.3347 31.8647 8.3335H26.5418V2.0835H24.4585V8.3335H18.2085C18.0332 8.3349 17.8612 8.38051 17.7082 8.46608C17.5553 8.55166 17.4264 8.67445 17.3335 8.82308L12.1252 17.1564C12.0188 17.3211 11.961 17.5125 11.9585 17.7085V44.7918C11.9585 45.6206 12.2877 46.4155 12.8738 47.0015C13.4598 47.5876 14.2547 47.9168 15.0835 47.9168H35.9168C36.7456 47.9168 37.5405 47.5876 38.1265 47.0015C38.7126 46.4155 39.0418 45.6206 39.0418 44.7918V17.7085C39.0426 17.4878 38.9733 17.2726 38.8439 17.0939ZM36.9585 44.7918C36.9585 45.0681 36.8487 45.333 36.6534 45.5284C36.458 45.7237 36.1931 45.8335 35.9168 45.8335H15.0835C14.8072 45.8335 14.5423 45.7237 14.3469 45.5284C14.1516 45.333 14.0418 45.0681 14.0418 44.7918V18.0106L18.8022 10.4168H24.4585V15.6252H21.3335V17.7085H29.6668V15.6252H26.5418V10.4168H31.3335L36.9585 18.0522V44.7918ZM16.1252 32.2918C16.1252 34.146 16.675 35.9586 17.7051 37.5003C18.7353 39.042 20.1994 40.2436 21.9125 40.9532C23.6256 41.6628 25.5106 41.8484 27.3291 41.4867C29.1477 41.125 30.8182 40.2321 32.1293 38.921C33.4404 37.6098 34.3333 35.9394 34.695 34.1208C35.0568 32.3022 34.8711 30.4172 34.1615 28.7042C33.452 26.9911 32.2503 25.5269 30.7086 24.4968C29.1669 23.4667 27.3544 22.9168 25.5002 22.9168C23.0138 22.9168 20.6292 23.9046 18.871 25.6627C17.1129 27.4209 16.1252 29.8054 16.1252 32.2918ZM32.7918 32.2918C32.7918 33.734 32.3642 35.1438 31.563 36.3429C30.7617 37.542 29.6229 38.4766 28.2906 39.0285C26.9582 39.5803 25.4921 39.7247 24.0776 39.4434C22.6632 39.162 21.3639 38.4676 20.3442 37.4478C19.3244 36.4281 18.63 35.1288 18.3486 33.7144C18.0673 32.2999 18.2117 30.8338 18.7635 29.5014C19.3154 28.1691 20.25 27.0302 21.4491 26.229C22.6482 25.4278 24.058 25.0002 25.5002 25.0002C27.434 25.0002 29.2887 25.7684 30.6561 27.1358C32.0236 28.5033 32.7918 30.358 32.7918 32.2918ZM26.5418 27.0835V28.1252H28.6252V30.2085H24.4585V31.2502H27.5835C27.8598 31.2502 28.1247 31.3599 28.3201 31.5553C28.5154 31.7506 28.6252 32.0156 28.6252 32.2918V35.4168C28.6252 35.6931 28.5154 35.958 28.3201 36.1534C28.1247 36.3487 27.8598 36.4585 27.5835 36.4585H26.5418V37.5002H24.4585V36.4585H22.3752V34.3752H26.5418V33.3335H23.4168C23.1406 33.3335 22.8756 33.2237 22.6803 33.0284C22.4849 32.833 22.3752 32.5681 22.3752 32.2918V29.1668C22.3752 28.8906 22.4849 28.6256 22.6803 28.4303C22.8756 28.2349 23.1406 28.1252 23.4168 28.1252H24.4585V27.0835H26.5418Z"
              fill="#616161"/>
    </g>
</svg>
