<svg width="14" height="16" viewBox="0 0 14 16" fill="none" xmlns="http://www.w3.org/2000/svg">
<path d="M8.33317 1.33337V4.00004C8.33317 4.35366 8.47365 4.6928 8.72369 4.94285C8.97374 5.1929 9.31288 5.33337 9.6665 5.33337H12.3332M8.99984 1.33337H2.99984C2.64622 1.33337 2.30708 1.47385 2.05703 1.7239C1.80698 1.97395 1.6665 2.31309 1.6665 2.66671V13.3334C1.6665 13.687 1.80698 14.0261 2.05703 14.2762C2.30708 14.5262 2.64622 14.6667 2.99984 14.6667H10.9998C11.3535 14.6667 11.6926 14.5262 11.9426 14.2762C12.1927 14.0261 12.3332 13.687 12.3332 13.3334V4.66671L8.99984 1.33337Z" stroke="#3F3F46" stroke-width="1.5" stroke-linecap="round" stroke-linejoin="round"/>
</svg>
