<svg width="14" height="14" viewBox="0 0 14 14" fill="none" xmlns="http://www.w3.org/2000/svg">
<path d="M4.33333 7C4.68696 7 5.02609 6.85952 5.27614 6.60948C5.52619 6.35943 5.66667 6.02029 5.66667 5.66667V4.33333H4.33333M8.33333 7C8.68696 7 9.02609 6.85952 9.27614 6.60948C9.52619 6.35943 9.66667 6.02029 9.66667 5.66667V4.33333H8.33333M13 9C13 9.35362 12.8595 9.69276 12.6095 9.94281C12.3594 10.1929 12.0203 10.3333 11.6667 10.3333H3.66667L1 13V2.33333C1 1.97971 1.14048 1.64057 1.39052 1.39052C1.64057 1.14048 1.97971 1 2.33333 1H11.6667C12.0203 1 12.3594 1.14048 12.6095 1.39052C12.8595 1.64057 13 1.97971 13 2.33333V9Z" stroke="#3F3F46" stroke-width="1.5" stroke-linecap="round" stroke-linejoin="round"/>
</svg>
