<svg width="50" height="50" viewBox="0 0 50 50" stroke="current" fill="current" xmlns="http://www.w3.org/2000/svg">
    <g id="plan">
        <g id="Group">
            <path id="Vector"
                  d="M30.408 3.71094H7.01549C5.7214 3.71564 4.48205 4.23368 3.56954 5.15131C2.65704 6.06894 2.14596 7.31117 2.1485 8.60527V34.5574C2.1456 34.8104 2.24174 35.0545 2.41637 35.2376L12.8411 45.9869C12.931 46.0814 13.0391 46.1568 13.1588 46.2087C13.2785 46.2606 13.4074 46.288 13.5379 46.2891H30.408C33.1004 46.2891 35.254 44.0871 35.254 41.3947V8.60527C35.254 5.91289 33.1004 3.71094 30.408 3.71094ZM12.5977 42.8929L5.41813 35.5469H11.5847C12.1232 35.5469 12.5977 35.9721 12.5977 36.5105V42.8929ZM33.3008 41.3947C33.3048 41.7771 33.2333 42.1565 33.0906 42.5112C32.9479 42.8659 32.7367 43.1891 32.4691 43.4622C32.2015 43.7353 31.8827 43.9531 31.531 44.103C31.1792 44.2529 30.8014 44.3321 30.419 44.3359H14.5508V36.5105C14.5508 34.8951 13.2002 33.5938 11.5847 33.5938H4.10163V8.60527C4.09856 7.82901 4.4037 7.08326 4.95004 6.5318C5.49637 5.98034 6.23924 5.66825 7.01549 5.66406H30.408C31.1801 5.66899 31.9186 5.98041 32.4611 6.52982C33.0037 7.07923 33.3057 7.82164 33.3009 8.59375V41.3947H33.3008Z"
                  fill="#2257BE"/>
            <path id="Vector_2"
                  d="M28.2998 16.4062H9.72559C9.46659 16.4062 9.21819 16.5091 9.03505 16.6923C8.85191 16.8754 8.74902 17.1238 8.74902 17.3828C8.74902 17.6418 8.85191 17.8902 9.03505 18.0733C9.21819 18.2565 9.46659 18.3594 9.72559 18.3594H28.2998C28.5588 18.3594 28.8072 18.2565 28.9903 18.0733C29.1735 17.8902 29.2764 17.6418 29.2764 17.3828C29.2764 17.1238 29.1735 16.8754 28.9903 16.6923C28.8072 16.5091 28.5588 16.4062 28.2998 16.4062Z"
                  fill="#2257BE"/>
            <path id="Vector_3"
                  d="M28.2998 22.2656H9.72559C9.46659 22.2656 9.21819 22.3685 9.03505 22.5517C8.85191 22.7348 8.74902 22.9832 8.74902 23.2422C8.74902 23.5012 8.85191 23.7496 9.03505 23.9327C9.21819 24.1159 9.46659 24.2188 9.72559 24.2188H28.2998C28.5588 24.2188 28.8072 24.1159 28.9903 23.9327C29.1735 23.7496 29.2764 23.5012 29.2764 23.2422C29.2764 22.9832 29.1735 22.7348 28.9903 22.5517C28.8072 22.3685 28.5588 22.2656 28.2998 22.2656Z"
                  fill="#2257BE"/>
            <path id="Vector_4"
                  d="M28.2998 28.125H9.72559C9.46659 28.125 9.21819 28.2279 9.03505 28.411C8.85191 28.5942 8.74902 28.8426 8.74902 29.1016C8.74902 29.3606 8.85191 29.609 9.03505 29.7921C9.21819 29.9752 9.46659 30.0781 9.72559 30.0781H28.2998C28.5588 30.0781 28.8072 29.9752 28.9903 29.7921C29.1735 29.609 29.2764 29.3606 29.2764 29.1016C29.2764 28.8426 29.1735 28.5942 28.9903 28.411C28.8072 28.2279 28.5588 28.125 28.2998 28.125Z"
                  fill="#2257BE"/>
            <path id="Vector_5"
                  d="M9.72559 12.8906H18.3011C18.5601 12.8906 18.8085 12.7877 18.9916 12.6046C19.1747 12.4215 19.2776 12.1731 19.2776 11.9141C19.2776 11.6551 19.1747 11.4067 18.9916 11.2235C18.8085 11.0404 18.5601 10.9375 18.3011 10.9375H9.72559C9.46659 10.9375 9.21819 11.0404 9.03505 11.2235C8.85191 11.4067 8.74902 11.6551 8.74902 11.9141C8.74902 12.1731 8.85191 12.4215 9.03505 12.6046C9.21819 12.7877 9.46659 12.8906 9.72559 12.8906Z"
                  fill="#2257BE"/>
            <path id="Vector_6"
                  d="M43.501 4.66992C42.3491 4.67139 41.2449 5.1294 40.4301 5.94359C39.6154 6.75778 39.1566 7.86174 39.1543 9.01357L39.1348 38.5058C39.1347 38.6628 39.1725 38.8176 39.2449 38.9569L42.6347 45.4764C42.7171 45.6349 42.8415 45.7678 42.9943 45.8606C43.1471 45.9533 43.3224 46.0024 43.5011 46.0024C43.6798 46.0024 43.8551 45.9533 44.0079 45.8606C44.1606 45.7678 44.285 45.6349 44.3675 45.4764L47.7572 38.9569C47.8297 38.8176 47.8675 38.6628 47.8674 38.5058L47.8479 9.01357C47.8456 7.86171 47.3867 6.75774 46.5719 5.94355C45.7572 5.12936 44.6528 4.67137 43.501 4.66992ZM45.8984 14.5507H41.1035L41.1041 13.5741H45.8976L45.8984 14.5507ZM45.8998 16.5038L45.9136 37.4999H41.0886L41.1025 16.5038H45.8998ZM43.5012 6.62305C44.1356 6.62392 44.7437 6.87625 45.1924 7.32472C45.6411 7.7732 45.8937 8.38124 45.8948 9.01562L45.8965 11.621H41.1058L41.1074 9.01533C41.1087 8.38099 41.3613 7.773 41.81 7.32458C42.2587 6.87617 42.8668 6.6239 43.5012 6.62305ZM43.5012 42.879L41.7198 39.453H45.2823L43.5012 42.879Z"
                  fill="#2257BE"/>
        </g>
    </g>
</svg>
